<?xml version="1.0" encoding="UTF-8" standalone="no"?><!DOCTYPE svg PUBLIC "-//W3C//DTD SVG 1.1//EN" "http://www.w3.org/Graphics/SVG/1.1/DTD/svg11.dtd"><svg width="100%" height="100%" viewBox="0 0 163 109" version="1.1" xmlns="http://www.w3.org/2000/svg" xmlns:xlink="http://www.w3.org/1999/xlink" xml:space="preserve" xmlns:serif="http://www.serif.com/" style="fill-rule:evenodd;clip-rule:evenodd;stroke-linejoin:round;stroke-miterlimit:2;"><path d="M162.5,94.792c0,7.448 -6.094,13.541 -13.542,13.541l-135.416,0c-7.448,0 -13.542,-6.093 -13.542,-13.541l-0,-81.25c-0,-7.448 6.094,-13.542 13.542,-13.542l135.416,-0c7.448,-0 13.542,6.094 13.542,13.542l0,81.25Z" style="fill:#fff;"/><path d="M148.958,0l-135.416,0c-7.448,0 -13.542,6.094 -13.542,13.542l-0,81.25c-0,7.448 6.094,13.541 13.542,13.541l135.416,0c7.448,0 13.542,-6.093 13.542,-13.541l0,-81.25c0,-7.448 -6.094,-13.542 -13.542,-13.542Zm0,2.708c5.975,0 10.834,4.859 10.834,10.834l-0,81.25c-0,5.974 -4.859,10.833 -10.834,10.833l-135.416,0c-5.975,0 -10.834,-4.859 -10.834,-10.833l0,-81.25c0,-5.975 4.859,-10.834 10.834,-10.834l135.416,0Z" style="fill:#b3b3b3;fill-rule:nonzero;"/><path d="M94.355,76.985c12.04,0 21.801,-9.76 21.801,-21.8c-0,-12.04 -9.761,-21.801 -21.801,-21.801c-12.04,0 -21.8,9.761 -21.8,21.801c-0,12.04 9.76,21.8 21.8,21.8Z" style="fill:#f79e1b;"/><path d="M67.634,76.935c12.04,-0 21.801,-9.761 21.801,-21.801c-0,-12.04 -9.761,-21.801 -21.801,-21.801c-12.04,0 -21.801,9.761 -21.801,21.801c0,12.04 9.761,21.801 21.801,21.801Z" style="fill:#eb001b;"/><path d="M72.555,55.134c-0.015,7.007 3.273,13.249 8.399,17.25c5.147,-3.978 8.465,-10.202 8.483,-17.207c0.015,-7.007 -3.273,-13.249 -8.399,-17.25c-5.149,3.973 -8.468,10.2 -8.483,17.207Z" style="fill:#ff5f00;"/></svg>