<?xml version="1.0" encoding="UTF-8" standalone="no"?><!DOCTYPE svg PUBLIC "-//W3C//DTD SVG 1.1//EN" "http://www.w3.org/Graphics/SVG/1.1/DTD/svg11.dtd"><svg width="100%" height="100%" viewBox="0 0 163 109" version="1.1" xmlns="http://www.w3.org/2000/svg" xmlns:xlink="http://www.w3.org/1999/xlink" xml:space="preserve" xmlns:serif="http://www.serif.com/" style="fill-rule:evenodd;clip-rule:evenodd;stroke-linejoin:round;stroke-miterlimit:2;"><path d="M162.5,94.792c0,7.448 -6.094,13.541 -13.542,13.541l-135.416,0c-7.448,0 -13.542,-6.093 -13.542,-13.541l-0,-81.25c-0,-7.448 6.094,-13.542 13.542,-13.542l135.416,-0c7.448,-0 13.542,6.094 13.542,13.542l0,81.25Z" style="fill:#fff;"/><path d="M148.958,0l-135.416,0c-7.448,0 -13.542,6.094 -13.542,13.542l-0,81.25c-0,7.448 6.094,13.541 13.542,13.541l135.416,0c7.448,0 13.542,-6.093 13.542,-13.541l0,-81.25c0,-7.448 -6.094,-13.542 -13.542,-13.542Zm0,2.708c5.975,0 10.834,4.859 10.834,10.834l-0,81.25c-0,5.974 -4.859,10.833 -10.834,10.833l-135.416,0c-5.975,0 -10.834,-4.859 -10.834,-10.833l0,-81.25c0,-5.975 4.859,-10.834 10.834,-10.834l135.416,0Z" style="fill:#b3b3b3;fill-rule:nonzero;"/><path d="M104.054,66.788c-0.493,1.176 -0.983,2.352 -1.479,3.546c0.04,0.009 0.073,0.018 0.101,0.025c0.05,0.013 0.085,0.022 0.12,0.021c0.418,0 0.836,0 1.254,0.001c2.3,0.004 4.6,0.007 6.899,-0.014c0.173,0 0.433,-0.214 0.499,-0.39c0.493,-1.285 0.965,-2.575 1.403,-3.878c0.139,-0.414 0.341,-0.55 0.777,-0.547c3.156,0.018 6.315,0.024 9.471,-0.003c0.52,-0.004 0.726,0.138 0.819,0.658c0.179,0.99 0.389,1.97 0.599,2.957c0.085,0.398 0.17,0.797 0.254,1.197l7.687,0c-0.011,-0.072 -0.021,-0.142 -0.031,-0.211c-0.022,-0.151 -0.042,-0.293 -0.072,-0.433c-0.257,-1.23 -0.515,-2.461 -0.772,-3.692c-1.911,-9.126 -3.821,-18.253 -5.715,-27.385c-0.094,-0.447 -0.275,-0.532 -0.68,-0.529c-2.126,0.016 -4.248,0.016 -6.373,0.007c-1.856,-0.007 -3.12,0.858 -3.83,2.557c-2.137,5.107 -4.274,10.213 -6.412,15.318c-1.507,3.598 -3.013,7.197 -4.519,10.795Zm16.96,-14.393c0.45,2.158 0.902,4.324 1.359,6.512c-2.337,-0 -4.568,-0 -6.908,-0.003c1.451,-3.997 2.881,-7.942 4.311,-11.887c0.039,0.006 0.079,0.009 0.118,0.012c0.374,1.786 0.746,3.573 1.12,5.366Z" style="fill:#152884;"/><path d="M104.504,38.966c-0.483,2.261 -0.964,4.496 -1.445,6.748c-0.916,-0.306 -1.786,-0.638 -2.681,-0.886c-1.974,-0.547 -3.988,-0.783 -6.013,-0.39c-0.728,0.142 -1.478,0.45 -2.086,0.874c-1.345,0.934 -1.387,2.476 -0.079,3.464c1.001,0.756 2.132,1.336 3.208,1.989c1.339,0.81 2.754,1.515 4.012,2.437c3.198,2.346 4.262,5.605 3.177,9.423c-1.022,3.594 -3.546,5.75 -6.911,7.046c-3.084,1.188 -6.297,1.358 -9.547,1.095c-2.043,-0.166 -4.054,-0.523 -5.997,-1.201c-0.321,-0.111 -0.635,-0.241 -0.995,-0.38c0.505,-2.37 1.004,-4.695 1.487,-6.972c1.382,0.487 2.706,1.043 4.078,1.418c2.047,0.556 4.154,0.759 6.243,0.291c0.813,-0.182 1.645,-0.554 2.316,-1.044c1.254,-0.918 1.348,-2.611 0.175,-3.633c-0.883,-0.768 -1.935,-1.348 -2.939,-1.968c-1.508,-0.931 -3.131,-1.702 -4.546,-2.757c-4.722,-3.522 -3.878,-8.843 -1.427,-12.029c1.82,-2.364 4.317,-3.673 7.15,-4.374c4.178,-1.034 8.301,-0.738 12.358,0.662c0.148,0.054 0.284,0.115 0.462,0.187Z" style="fill:#152884;"/><path d="M80.287,38.17c-0.221,1.058 -0.432,2.098 -0.656,3.135c-2.017,9.429 -4.042,18.858 -6.037,28.29c-0.13,0.613 -0.339,0.822 -0.986,0.807c-2.276,-0.046 -4.553,-0.018 -6.829,-0.018l-0.707,-0c0.214,-1.01 0.414,-1.956 0.616,-2.899c2.062,-9.635 4.127,-19.27 6.182,-28.907c0.064,-0.299 0.13,-0.471 0.493,-0.471c2.546,0.015 5.088,0.009 7.634,0.012c0.072,0.006 0.145,0.027 0.29,0.051Z" style="fill:#152884;"/><path d="M29.345,38.1l0.62,-0c4.419,-0 8.839,-0.003 13.259,-0c2.334,-0 3.763,1.191 4.196,3.476c1.142,6.044 2.285,12.087 3.428,18.129c0.006,0.037 0.024,0.073 0.082,0.23c0.123,-0.272 0.217,-0.456 0.293,-0.65c2.721,-6.871 5.445,-13.743 8.144,-20.62c0.178,-0.456 0.405,-0.583 0.871,-0.58c2.487,0.021 4.975,0.009 7.46,0.009l0.65,-0c-0.123,0.323 -0.217,0.586 -0.326,0.843c-4.317,10.306 -8.637,20.608 -12.948,30.917c-0.151,0.363 -0.32,0.523 -0.744,0.517c-2.602,-0.021 -5.205,-0.021 -7.805,-0c-0.408,0.003 -0.547,-0.127 -0.647,-0.514c-2.188,-8.507 -4.402,-17.008 -6.584,-25.517c-0.33,-1.279 -1.028,-2.165 -2.222,-2.733c-2.394,-1.143 -4.922,-1.869 -7.488,-2.485c-0.127,-0.031 -0.251,-0.07 -0.417,-0.115c0.03,-0.163 0.054,-0.309 0.081,-0.454c0.03,-0.124 0.058,-0.254 0.097,-0.453Z" style="fill:#152884;"/></svg>