<?xml version="1.0" encoding="UTF-8" standalone="no"?><!DOCTYPE svg PUBLIC "-//W3C//DTD SVG 1.1//EN" "http://www.w3.org/Graphics/SVG/1.1/DTD/svg11.dtd"><svg width="100%" height="100%" viewBox="0 0 163 109" version="1.1" xmlns="http://www.w3.org/2000/svg" xmlns:xlink="http://www.w3.org/1999/xlink" xml:space="preserve" xmlns:serif="http://www.serif.com/" style="fill-rule:evenodd;clip-rule:evenodd;stroke-linejoin:round;stroke-miterlimit:2;"><path d="M162.5,94.792c0,7.448 -6.094,13.541 -13.542,13.541l-135.416,0c-7.448,0 -13.542,-6.093 -13.542,-13.541l-0,-81.25c-0,-7.448 6.094,-13.542 13.542,-13.542l135.416,-0c7.448,-0 13.542,6.094 13.542,13.542l0,81.25Z" style="fill:#fff;"/><path d="M148.958,0l-135.416,0c-7.448,0 -13.542,6.094 -13.542,13.542l-0,81.25c-0,7.448 6.094,13.541 13.542,13.541l135.416,0c7.448,0 13.542,-6.093 13.542,-13.541l0,-81.25c0,-7.448 -6.094,-13.542 -13.542,-13.542Zm0,2.708c5.975,0 10.834,4.859 10.834,10.834l-0,81.25c-0,5.974 -4.859,10.833 -10.834,10.833l-135.416,0c-5.975,0 -10.834,-4.859 -10.834,-10.833l0,-81.25c0,-5.975 4.859,-10.834 10.834,-10.834l135.416,0Z" style="fill:#b3b3b3;fill-rule:nonzero;"/><g><path d="M67.734,51.532l-12.878,5.61l-0,-0.638c-0,-4.207 3.273,-7.438 7.438,-7.438c2.04,0 4.038,0.935 5.44,2.466Z" style="fill-rule:nonzero;"/><path d="M81.25,12.217c-23.164,-0 -41.95,18.786 -41.95,41.95c0,23.163 18.786,41.95 41.95,41.95c23.164,-0 41.95,-18.787 41.95,-41.95c-0,-23.164 -18.786,-41.95 -41.95,-41.95Zm-25.161,54.403l3.102,-4.675c3.103,1.87 6.078,1.572 9.181,-0.935l3.867,3.867c-4.335,4.336 -11.05,5.143 -16.15,1.7l-0,0.043Zm14.45,-11.518l-5.27,2.337l-12.751,5.611c-1.402,-2.168 -2.167,-4.676 -2.167,-7.141c-0,-7.14 5.738,-12.878 12.878,-12.878c6.078,0 11.178,4.208 12.581,9.946l-5.271,2.167l0,-0.042Zm13.984,12.878l-4.676,-2.04c-1.87,-0.765 -2.337,-1.87 -2.337,-4.208l-0,-24.396l4.675,-0l0,23.759c0,0.297 0.17,0.467 0.298,0.637l4.037,1.573l-2.04,4.675l0.043,-0Zm14.918,0.297c-7.013,0 -12.751,-5.737 -12.751,-12.75c0,-1.87 0.468,-3.868 1.233,-5.611l4.803,2.466c-0.468,0.935 -0.638,1.87 -0.638,2.932c0,4.038 3.273,7.311 7.311,7.311c1.87,-0 3.74,-0.765 5.142,-2.04l3.571,4.037c-2.338,2.338 -5.441,3.57 -8.713,3.57l0.042,0.085Zm6.673,-10.115c0.297,-0.935 0.637,-1.87 0.637,-2.805c0,-4.038 -3.272,-7.311 -7.31,-7.311c-1.87,0 -3.57,0.765 -4.973,1.87l-3.57,-4.037c2.338,-2.04 5.44,-3.273 8.543,-3.273c7.013,0 12.751,5.61 12.751,12.581c-0,1.87 -0.468,3.867 -1.233,5.61l-4.803,-2.635l-0.042,-0Z" style="fill-rule:nonzero;"/></g></svg>