<?xml version="1.0" encoding="UTF-8" standalone="no"?><!DOCTYPE svg PUBLIC "-//W3C//DTD SVG 1.1//EN" "http://www.w3.org/Graphics/SVG/1.1/DTD/svg11.dtd"><svg width="100%" height="100%" viewBox="0 0 163 109" version="1.1" xmlns="http://www.w3.org/2000/svg" xmlns:xlink="http://www.w3.org/1999/xlink" xml:space="preserve" xmlns:serif="http://www.serif.com/" style="fill-rule:evenodd;clip-rule:evenodd;stroke-linejoin:round;stroke-miterlimit:2;"><path d="M162.5,94.792c0,7.448 -6.094,13.541 -13.542,13.541l-135.416,0c-7.448,0 -13.542,-6.093 -13.542,-13.541l-0,-81.25c-0,-7.448 6.094,-13.542 13.542,-13.542l135.416,-0c7.448,-0 13.542,6.094 13.542,13.542l0,81.25Z" style="fill:#fff;"/><g><path d="M127.168,83.921l-114.362,0.04l0,-0.137c0,-0.076 0.091,-0.565 0.202,-1.091c0.111,-0.523 0.284,-1.358 0.384,-1.853c0.099,-0.495 0.273,-1.336 0.38,-1.867c0.108,-0.534 0.29,-1.421 0.404,-1.972c0.114,-0.552 0.29,-1.424 0.392,-1.939c0.103,-0.514 0.276,-1.355 0.384,-1.867c0.108,-0.514 0.29,-1.401 0.406,-1.972c0.117,-0.572 0.293,-1.444 0.393,-1.939c0.099,-0.494 0.258,-1.258 0.352,-1.696c0.094,-0.438 0.213,-1.029 0.267,-1.316c0.051,-0.284 0.222,-1.126 0.378,-1.87c0.156,-0.745 0.327,-1.583 0.381,-1.867c0.054,-0.285 0.227,-1.126 0.381,-1.87c0.156,-0.742 0.327,-1.583 0.381,-1.867c0.054,-0.284 0.224,-1.126 0.383,-1.867c0.157,-0.742 0.327,-1.569 0.378,-1.834c0.051,-0.264 0.188,-0.952 0.304,-1.523c0.117,-0.571 0.341,-1.646 0.495,-2.387c0.153,-0.742 0.418,-2.035 0.588,-2.874c0.171,-0.838 0.37,-1.833 0.446,-2.214c0.077,-0.38 0.219,-1.065 0.313,-1.523c0.094,-0.458 0.264,-1.282 0.378,-1.833c0.114,-0.551 0.301,-1.455 0.415,-2.006c0.114,-0.552 0.287,-1.41 0.386,-1.905c0.1,-0.494 0.27,-1.318 0.378,-1.833c0.108,-0.514 0.296,-1.418 0.415,-2.006c0.12,-0.591 0.321,-1.492 0.446,-2.007c0.125,-0.514 0.302,-1.136 0.395,-1.384c0.091,-0.247 0.344,-0.784 0.56,-1.19l0.395,-0.742l0.358,-0.469c0.197,-0.259 0.549,-0.665 0.782,-0.907c0.233,-0.241 0.625,-0.602 0.873,-0.804c0.247,-0.202 0.605,-0.475 0.795,-0.605c0.191,-0.131 0.563,-0.361 0.83,-0.509c0.267,-0.151 0.64,-0.344 0.83,-0.435c0.19,-0.091 0.58,-0.253 0.864,-0.364c0.284,-0.11 0.83,-0.295 1.211,-0.412c0.38,-0.116 1.094,-0.29 1.588,-0.386c0.492,-0.097 1.271,-0.228 1.731,-0.29l0.836,-0.111l114.43,-0.045l-0,0.136c-0,0.077 -0.091,0.566 -0.205,1.091c-0.111,0.523 -0.298,1.421 -0.418,1.993c-0.116,0.571 -0.287,1.395 -0.378,1.833c-0.091,0.437 -0.264,1.279 -0.386,1.87c-0.12,0.591 -0.307,1.492 -0.412,2.006c-0.105,0.515 -0.279,1.356 -0.381,1.87c-0.102,0.515 -0.276,1.356 -0.384,1.867c-0.108,0.515 -0.273,1.325 -0.369,1.799c-0.097,0.475 -0.27,1.333 -0.387,1.904c-0.116,0.572 -0.304,1.475 -0.415,2.007c-0.111,0.531 -0.284,1.358 -0.38,1.833c-0.097,0.475 -0.27,1.333 -0.387,1.904c-0.116,0.572 -0.301,1.475 -0.415,2.006c-0.114,0.532 -0.279,1.342 -0.372,1.8c-0.091,0.457 -0.264,1.313 -0.387,1.904c-0.119,0.591 -0.295,1.446 -0.386,1.904c-0.094,0.457 -0.262,1.267 -0.372,1.799c-0.111,0.534 -0.302,1.452 -0.421,2.04c-0.12,0.592 -0.293,1.43 -0.384,1.868c-0.091,0.437 -0.259,1.261 -0.375,1.833c-0.117,0.571 -0.301,1.475 -0.412,2.006c-0.111,0.531 -0.281,1.373 -0.384,1.867c-0.099,0.495 -0.275,1.35 -0.389,1.904c-0.114,0.552 -0.298,1.456 -0.412,2.007c-0.114,0.551 -0.281,1.378 -0.375,1.833c-0.094,0.457 -0.265,1.299 -0.381,1.87c-0.117,0.571 -0.304,1.469 -0.421,2.001l-0.207,0.961l-0.247,0.664c-0.137,0.367 -0.341,0.853 -0.455,1.08c-0.114,0.228 -0.347,0.632 -0.517,0.895c-0.171,0.265 -0.407,0.603 -0.529,0.754c-0.122,0.151 -0.48,0.534 -0.801,0.858l-0.583,0.586l-0.563,0.397c-0.31,0.219 -0.642,0.444 -0.739,0.498c-0.096,0.054 -0.469,0.244 -0.827,0.423c-0.358,0.179 -0.861,0.406 -1.119,0.506c-0.259,0.1 -0.773,0.267 -1.143,0.375c-0.369,0.108 -0.765,0.213 -0.878,0.236c-0.114,0.023 -0.512,0.105 -0.881,0.182c-0.37,0.079 -1.117,0.196 -1.66,0.261l-0.989,0.117Z" style="fill:#b7232c;"/><path d="M44.497,43.093l0.219,-0.938l-4.172,-0l-0.091,0.636c-0.023,0.18 -0.108,0.68 -0.179,1.115l-0.032,0.176c-0.079,0.446 -0.193,1.103 -0.275,1.554c-0.091,0.515 -0.262,1.498 -0.375,2.186c-0.114,0.685 -0.259,1.597 -0.322,2.02l-0.071,0.472l-4.703,0.097l-2.1,-0.051c-0.788,-0.02 -1.373,-0.037 -1.72,-0.048c0.009,-0.06 0.02,-0.129 0.034,-0.196c0.057,-0.319 0.16,-0.876 0.233,-1.234c0.074,-0.364 0.214,-1.083 0.31,-1.597c0.097,-0.52 0.208,-1.165 0.247,-1.438c0.035,-0.259 0.111,-0.691 0.168,-0.961c0.06,-0.279 0.174,-0.867 0.247,-1.304c0.069,-0.395 0.142,-0.762 0.162,-0.833l0.231,-0.594l-4.207,-0l-0.162,0.895c-0.059,0.338 -0.139,0.816 -0.176,1.069c-0.037,0.247 -0.165,1.037 -0.281,1.759l-0.765,4.777c-0.116,0.722 -0.304,1.839 -0.42,2.484c-0.12,0.648 -0.287,1.563 -0.378,2.038l-0.381,2.006c-0.119,0.631 -0.293,1.512 -0.387,1.967c-0.093,0.463 -0.198,0.995 -0.233,1.188c-0.034,0.188 -0.139,0.733 -0.235,1.211c-0.069,0.341 -0.185,0.935 -0.185,1.057l-0,0.466l4.021,0l0.836,-5.07c0.119,-0.705 0.292,-1.745 0.392,-2.316c0.097,-0.569 0.253,-1.455 0.344,-1.964c0.059,-0.333 0.111,-0.585 0.133,-0.716l8.492,-0l-0.014,0.076c-0.043,0.222 -0.173,0.898 -0.284,1.509l-0.421,2.286c-0.119,0.645 -0.29,1.562 -0.381,2.04c-0.09,0.474 -0.278,1.475 -0.412,2.217c-0.074,0.415 -0.25,1.386 -0.25,1.497l0.006,0.441l4.027,0l0.125,-0.727c0.043,-0.239 0.108,-0.674 0.151,-0.961c0.039,-0.284 0.133,-0.887 0.21,-1.341l0.344,-2.007c0.111,-0.651 0.296,-1.754 0.415,-2.458c0.116,-0.705 0.29,-1.731 0.384,-2.282c0.096,-0.552 0.264,-1.481 0.375,-2.072l1.187,-6.472c0.108,-0.645 0.256,-1.387 0.319,-1.659Z" style="fill:#f5f5f5;"/><path d="M48.447,53.902l0.378,-1.972c0.097,-0.514 0.284,-1.486 0.421,-2.168c0.139,-0.699 0.244,-1.171 0.275,-1.245l0.336,-0.549l-3.959,0.049l-0.168,1.202c-0.068,0.497 -0.218,1.472 -0.335,2.174l-0.387,2.39c-0.096,0.608 -0.267,1.583 -0.378,2.172l-0.378,2.006c-0.096,0.514 -0.27,1.415 -0.383,2.003c-0.114,0.589 -0.27,1.365 -0.344,1.726c-0.071,0.352 -0.148,0.707 -0.171,0.793l-0.162,0.602l3.686,-0l0.129,-0.335c0.062,-0.165 0.065,-0.449 0.065,-0.481c-0,-0.091 0.074,-0.668 0.204,-1.477c0.117,-0.711 0.305,-1.868 0.421,-2.57c0.117,-0.705 0.287,-1.73 0.381,-2.285c0.091,-0.548 0.258,-1.463 0.369,-2.035Z" style="fill:#f5f5f5;"/><path d="M47.501,46.142l1.048,0.037l0.725,-0.244l0.728,-0.685l0.392,-0.926l0.034,-1.399l-0.33,-0.545l-0.685,-0.469l-1.142,-0l-0.85,0.346l-0.526,0.523l-0.392,0.864l-0.093,1.401l0.4,0.785l0.691,0.312Z" style="fill:#f5f5f5;"/><path d="M63.365,49.693l0.469,0.935l0.315,1.338l0.1,1.302l-0.08,0.796c-0.045,0.404 -0.145,1.068 -0.224,1.481l-0.14,0.719l-0.278,0.872c-0.156,0.478 -0.415,1.174 -0.577,1.555c-0.151,0.355 -0.386,0.838 -0.526,1.04c-0.014,0.022 -0.029,0.045 -0.042,0.067c-0.044,0.068 -0.084,0.13 -0.105,0.169c-0.029,0.088 -0.117,0.23 -0.384,0.58c-0.193,0.255 -0.557,0.668 -0.81,0.92l-0.452,0.449l-0.54,0.364c-0.287,0.188 -0.702,0.421 -0.947,0.532l-0.414,0.19l-1.606,0.418l-1.495,0.099l-1.279,-0.173l-1.066,-0.458l-0.716,-0.722c-0.056,0.381 -0.139,0.933 -0.21,1.385l-0.685,4.337c-0.066,0.42 -0.105,0.784 -0.105,0.858c-0,0.125 -0.02,0.315 -0.063,0.435l-0.136,0.341l-3.669,-0l0.142,-0.595c0.02,-0.085 0.128,-0.613 0.242,-1.179c0.113,-0.568 0.298,-1.532 0.412,-2.143c0.113,-0.605 0.304,-1.634 0.423,-2.282l0.759,-4.115c0.113,-0.631 0.301,-1.685 0.415,-2.35l0.762,-4.533c0.113,-0.685 0.307,-1.873 0.429,-2.643l0.27,-1.703l3.208,0l-0.011,0.367c-0.003,0.117 -0.043,0.352 -0.08,0.543c0.073,-0.052 0.141,-0.097 0.171,-0.116c0.006,-0.004 0.011,-0.007 0.014,-0.01c0.225,-0.139 0.614,-0.349 0.87,-0.468l0.466,-0.214l1.128,-0.295l1.359,-0.162l1.244,0.082l1.234,0.296l1.245,0.651l0.963,1.04Zm-3.005,5.445l0.06,-2.51l-0.105,-0.395c-0.057,-0.219 -0.173,-0.54 -0.25,-0.687l-0.136,-0.276l-0.518,-0.517l-0.659,-0.304l-0.892,-0.18l-1.194,0.072l-0.887,0.284l-0.298,0.179c-0.182,0.102 -0.509,0.332 -0.716,0.506l-0.299,0.247l-0.156,0.835c-0.1,0.523 -0.278,1.501 -0.395,2.163c-0.117,0.671 -0.293,1.637 -0.392,2.152l-0.179,0.935l-0.06,1.094l0.074,0.324c0.045,0.179 0.145,0.48 0.222,0.654l0.125,0.281l0.443,0.423l0.671,0.304l0.71,0.126l1.026,-0.072l1.074,-0.366l0.211,-0.157c0.13,-0.096 0.347,-0.269 0.474,-0.38c0.106,-0.091 0.313,-0.319 0.444,-0.504c0.125,-0.173 0.36,-0.562 0.52,-0.864l0.29,-0.548l0.213,-0.628c0.13,-0.375 0.312,-1.009 0.403,-1.412l0.176,-0.779Z" style="fill:#f5f5f5;"/><path d="M78.424,51.817l-0.003,0.636l-0.096,0.807c-0.057,0.421 -0.159,0.995 -0.225,1.279l-0.182,0.77l-7.983,-0.054l-1.773,0.083l-0.194,1.256l0.006,1.626l0.253,0.886l0.367,0.62l0.469,0.42l0.287,0.142c0.167,0.086 0.486,0.211 0.699,0.279l0.358,0.114l2.367,-0.003l1.455,-0.293l0.682,-0.227c0.412,-0.134 0.827,-0.287 0.941,-0.344l0.48,-0.233l0.319,0.307l0.037,0.267l-0.171,0.821c-0.091,0.443 -0.185,0.941 -0.207,1.109l-0.077,0.562l-1.086,0.239c-0.449,0.097 -1.182,0.233 -1.634,0.296c-0.423,0.059 -1.117,0.136 -1.54,0.176l-0.779,0.071l-0.779,-0.009c-0.446,-0.005 -1.009,-0.036 -1.281,-0.071c-0.276,-0.037 -0.762,-0.131 -1.086,-0.207l-0.568,-0.136l-0.472,-0.208c-0.25,-0.114 -0.609,-0.324 -0.819,-0.48c-0.21,-0.16 -0.509,-0.424 -0.676,-0.6c-0.179,-0.188 -0.404,-0.489 -0.515,-0.682c-0.104,-0.191 -0.255,-0.518 -0.341,-0.742c-0.082,-0.227 -0.198,-0.617 -0.258,-0.878l-0.105,-0.449l-0.012,-2.14l0.114,-0.756c0.063,-0.395 0.19,-1.032 0.281,-1.421c0.097,-0.404 0.25,-0.949 0.353,-1.245c0.099,-0.293 0.25,-0.69 0.33,-0.887c0.085,-0.199 0.267,-0.579 0.403,-0.855c0.139,-0.279 0.387,-0.696 0.549,-0.938c0.161,-0.242 0.457,-0.6 0.67,-0.816c0.202,-0.198 0.509,-0.48 0.688,-0.625c0.179,-0.142 0.534,-0.38 0.807,-0.537c0.261,-0.148 0.716,-0.364 1.012,-0.486l0.523,-0.205l1.725,-0.338l1.427,-0.097l1.549,0.148l1.256,0.299l0.429,0.213c0.202,0.105 0.486,0.282 0.631,0.381c0.165,0.116 0.392,0.324 0.523,0.475c0.128,0.147 0.312,0.417 0.426,0.611l0.219,0.409l0.221,0.946l0.006,0.714Zm-3.538,1.146l0.108,-0.986l-0.117,-0.708l-0.067,-0.13c-0.032,-0.057 -0.145,-0.219 -0.254,-0.336l-0.164,-0.176l-0.66,-0.301l-0.975,-0.122l-0.659,0.042c-0.401,0.023 -0.796,0.074 -0.904,0.103c-0.108,0.028 -0.406,0.141 -0.662,0.264l-0.392,0.187l-0.833,0.827l-0.182,0.364c-0.108,0.219 -0.275,0.617 -0.372,0.881c-0.011,0.026 -0.02,0.051 -0.028,0.077c0.582,0.008 1.674,0.014 2.995,0.014l3.166,0Z" style="fill:#f5f5f5;"/><path d="M87.871,50.702c0.444,0.13 0.492,0.13 0.535,0.13c0.04,0 0.398,-0.014 0.398,-0.514c0.002,-0.071 0.062,-0.449 0.164,-0.946c0.179,-0.887 0.179,-0.93 0.179,-0.966c0,-0.296 -0.258,-0.39 -0.756,-0.538c-0.267,-0.079 -0.679,-0.179 -0.903,-0.204l-0.401,-0.051l-0.503,0.088c-0.262,0.048 -0.648,0.147 -0.878,0.23c-0.225,0.082 -0.58,0.261 -0.813,0.412c-0.233,0.151 -0.571,0.42 -0.767,0.614c-0.1,0.099 -0.233,0.244 -0.367,0.403c0.068,-0.383 0.134,-0.73 0.153,-0.804l0.177,-0.577l-3.473,0l-0,0.517c-0.003,0.074 -0.063,0.523 -0.171,1.174c-0.096,0.586 -0.253,1.563 -0.349,2.174c-0.097,0.608 -0.267,1.668 -0.381,2.35c-0.114,0.683 -0.285,1.661 -0.381,2.172l-0.381,2.006c-0.113,0.592 -0.301,1.555 -0.417,2.143c-0.117,0.591 -0.256,1.285 -0.311,1.546c-0.104,0.512 -0.104,0.583 -0.104,0.668l-0,0.355l3.64,0l0.068,-0.954c0.023,-0.336 0.108,-1.03 0.182,-1.51c0.077,-0.502 0.236,-1.506 0.355,-2.228c0.117,-0.719 0.333,-1.915 0.478,-2.663c0.159,-0.787 0.318,-1.48 0.358,-1.6c0.037,-0.105 0.125,-0.369 0.119,-0.452c0.012,-0.045 0.088,-0.25 0.222,-0.537c0.125,-0.273 0.369,-0.707 0.534,-0.955l0.262,-0.406l0.804,-0.745l0.918,-0.44l1.458,0.008l0.352,0.1Z" style="fill:#f5f5f5;"/><path d="M99.657,50.101c0.049,-0.312 0.134,-0.823 0.191,-1.139c0.122,-0.685 0.105,-0.793 -0.025,-0.924c-0.083,-0.079 -0.117,-0.113 -0.813,-0.193c-0.316,-0.037 -1.18,-0.102 -1.916,-0.145l-1.37,-0.074l-1.915,0.151l-1.444,0.307l-0.449,0.179c-0.241,0.096 -0.628,0.284 -0.85,0.418c-0.199,0.122 -0.452,0.287 -0.571,0.366c-0.139,0.102 -0.497,0.432 -0.767,0.697l-0.574,0.574l-0.296,0.432c-0.171,0.252 -0.463,0.767 -0.651,1.148l-0.347,0.71l-0.252,0.728c-0.143,0.409 -0.341,1.074 -0.441,1.483l-0.188,0.776l-0.13,1.35l0.003,1.776l0.153,1.092l0.446,1.097l0.529,0.809l0.764,0.751l0.958,0.514l0.531,0.148c0.316,0.088 0.745,0.182 0.981,0.219c0.239,0.034 0.782,0.063 1.208,0.068l0.784,0.009l0.887,-0.105c0.483,-0.057 1.128,-0.154 1.432,-0.211c0.307,-0.059 0.805,-0.176 1.1,-0.264c0.611,-0.168 0.688,-0.236 0.716,-0.265c0.08,-0.062 0.157,-0.127 0.307,-0.903c0.071,-0.361 0.159,-0.844 0.199,-1.074c0.082,-0.501 0.066,-0.611 -0.057,-0.756l-0.119,-0.108l-0.148,-0c-0.133,-0 -0.247,0.068 -0.295,0.108c-0.054,0.031 -0.319,0.145 -0.682,0.281l-0.612,0.23l-1.818,0.364l-1.561,-0.054l-0.798,-0.279l-0.609,-0.534l-0.411,-0.753l-0.208,-1.02l0,-0.745l-0.003,-0.69l0.262,-1.748l0.145,-0.486c0.079,-0.27 0.173,-0.589 0.201,-0.702c0.029,-0.106 0.151,-0.412 0.265,-0.674c0.119,-0.275 0.335,-0.699 0.474,-0.946l0.216,-0.392l0.591,-0.629l0.617,-0.394l0.446,-0.14c0.236,-0.071 0.657,-0.167 0.918,-0.207l0.446,-0.074l1.472,0.068l1.746,0.344l0.366,0.136c0.432,0.163 0.432,0.163 0.509,0.163c0.324,0.002 0.352,-0.2 0.457,-0.868Z" style="fill:#f5f5f5;"/><path d="M110.997,48.089l0.958,0.506l0.614,0.614l0.426,0.958l-0.011,1.734l-0.191,1.062c-0.095,0.515 -0.252,1.378 -0.363,1.985l-0.023,0.127c-0.108,0.605 -0.279,1.572 -0.375,2.14c-0.094,0.571 -0.256,1.609 -0.356,2.308l-0.179,1.281l-0.088,2.277l-3.24,-0l0.003,-0.787c0,-0.168 0.02,-0.441 0.048,-0.722c-0.062,0.068 -0.122,0.131 -0.176,0.185c-0.204,0.207 -0.545,0.485 -0.773,0.636c-0.213,0.145 -0.568,0.347 -0.804,0.461l-0.381,0.179l-1.242,0.321l-1.978,0.062l-0.44,-0.068c-0.236,-0.034 -0.648,-0.131 -0.921,-0.205l-0.563,-0.173l-0.915,-0.577l-0.233,-0.273c-0.145,-0.167 -0.347,-0.466 -0.463,-0.676l-0.227,-0.446l-0.2,-1.054l-0.005,-1.336l0.216,-1.27l0.253,-0.617c0.136,-0.316 0.352,-0.731 0.497,-0.944c0.136,-0.204 0.444,-0.563 0.693,-0.813l0.415,-0.414l0.592,-0.378c0.613,-0.384 0.69,-0.384 0.778,-0.384c-0.009,-0.004 0.032,-0.024 0.091,-0.052c0.031,-0.015 0.066,-0.032 0.103,-0.05c0.193,-0.089 0.701,-0.259 1.167,-0.384l0.907,-0.239l4.69,-0.02l0.179,-0.878l-0.003,-0.461l0.003,-0.414l-0.336,-0.503l-0.673,-0.333l-1.154,-0.202l-1.791,0.083l-0.995,0.173c-0.542,0.091 -1.301,0.25 -1.656,0.344c-0.611,0.168 -0.719,0.168 -0.754,0.168l-0.159,-0l-0.116,-0.12c-0.148,-0.147 -0.134,-0.233 0.094,-1.108c0.108,-0.41 0.23,-0.921 0.275,-1.137l0.14,-0.676l1.421,-0.009l0.79,-0.097c0.469,-0.059 1.367,-0.136 2.004,-0.176l1.153,-0.071l1.839,0.136l1.435,0.327Zm-2.185,7.567l0.037,-0.216l-3.223,-0l-1.066,0.253l-0.767,0.378l-0.753,0.747l-0.194,0.404c-0.113,0.227 -0.256,0.594 -0.315,0.795l-0.102,0.35l0.051,1.194l0.113,0.213c0.071,0.133 0.199,0.333 0.276,0.42l0.125,0.151l0.25,0.128c0.151,0.079 0.432,0.185 0.603,0.227l0.315,0.08l1.006,-0.054l1.029,-0.324l0.213,-0.145c0.182,-0.122 0.293,-0.182 0.367,-0.21c0.074,-0.055 0.213,-0.182 0.36,-0.333l0.384,-0.381l0.231,-0.386c0.096,-0.165 0.184,-0.319 0.216,-0.384c0.022,-0.082 0.076,-0.241 0.213,-0.594c0.105,-0.264 0.272,-0.787 0.369,-1.142c0.094,-0.356 0.211,-0.876 0.262,-1.171Z" style="fill:#f5f5f5;"/><path d="M123.314,50.808l0.27,-0.02l0.301,-0.19l0.006,-0.413c-0,-0.079 0.066,-0.486 0.159,-0.94l0.222,-1.075l-0.463,-0.184c-0.108,-0.04 -0.356,-0.123 -0.549,-0.182l-0.347,-0.111l-1.355,-0.014l-1.2,0.412l-0.761,0.457l-0.762,0.782c0.06,-0.313 0.131,-0.722 0.134,-0.836l0.008,-0.517l-2.921,-0l-0.355,0.017l-0,0.355c-0.006,0.063 -0.066,0.478 -0.14,0.961c-0.077,0.52 -0.236,1.515 -0.349,2.219c-0.114,0.7 -0.299,1.837 -0.416,2.524c-0.113,0.682 -0.284,1.66 -0.38,2.174c-0.097,0.512 -0.267,1.416 -0.378,2.004l-0.958,4.851l3.808,0l-0.002,-1.227l0.175,-1.146c0.097,-0.628 0.254,-1.625 0.353,-2.214c0.1,-0.588 0.219,-1.341 0.27,-1.662c0.051,-0.322 0.182,-1.012 0.296,-1.538c0.119,-0.554 0.256,-1.1 0.304,-1.239c0.011,-0.037 0.127,-0.355 0.125,-0.452c0.011,-0.048 0.102,-0.273 0.258,-0.602l0.251,-0.543l0.721,-0.958l0.37,-0.281c0.207,-0.156 0.551,-0.37 0.753,-0.466l0.321,-0.16l1.591,0.015l0.64,0.199Z" style="fill:#f5f5f5;"/><path d="M134.571,42.49l0.077,-0.75l3.637,-0l0,0.355c0.004,0.085 0.004,0.12 -0.173,0.972c-0.091,0.435 -0.264,1.29 -0.381,1.896c-0.116,0.608 -0.292,1.537 -0.392,2.072l-0.784,4.257c-0.114,0.625 -0.287,1.591 -0.381,2.143c-0.094,0.551 -0.239,1.375 -0.321,1.836c-0.08,0.451 -0.222,1.321 -0.313,1.926c-0.091,0.606 -0.258,1.893 -0.372,2.862l-0.208,1.765l0.003,1.245l-3.461,-0l0.082,-0.858c0.011,-0.117 0.028,-0.259 0.046,-0.398l-0.003,0.006l-0.765,0.682l-0.486,0.264c-0.253,0.128 -0.617,0.273 -0.829,0.333c-0.217,0.062 -0.683,0.153 -1.007,0.207l-0.654,0.108l-0.687,-0.009c-0.389,-0.005 -0.884,-0.034 -1.125,-0.065c-0.242,-0.031 -0.649,-0.114 -0.916,-0.188c-0.258,-0.065 -0.662,-0.221 -0.915,-0.349l-0.415,-0.202l-0.676,-0.543l-0.637,-0.867l-0.145,-0.366c-0.082,-0.208 -0.196,-0.529 -0.25,-0.708l-0.091,-0.307l-0.17,-1.804l0.207,-2.211l0.222,-0.887c0.122,-0.478 0.301,-1.072 0.409,-1.35c0.099,-0.27 0.352,-0.839 0.571,-1.293l0.376,-0.782l0.349,-0.511c0.19,-0.27 0.535,-0.691 0.77,-0.944l0.418,-0.449l1.018,-0.762l1.369,-0.673l1.453,-0.378l1.577,-0.151l1.861,0.14l0.717,0.176c0.017,0.002 0.29,0.073 0.52,0.139l0.213,-1.293c0.113,-0.685 0.298,-1.833 0.415,-2.558c0.111,-0.716 0.224,-1.492 0.247,-1.728Zm-8.15,11.043c-0.091,0.199 -0.168,0.395 -0.185,0.466c-0.003,0 0.077,-0.142 -0.188,0.691l-0.17,0.551l-0.21,1.535l-0.015,1.754l0.176,0.772l0.364,0.703l0.472,0.383l0.293,0.125c0.162,0.071 0.446,0.157 0.608,0.185l0.355,0.062l0.918,-0.059l1.009,-0.321l0.341,-0.225c0.193,-0.125 0.449,-0.324 0.566,-0.432c0.108,-0.096 0.293,-0.313 0.401,-0.469c0.108,-0.15 0.278,-0.455 0.375,-0.659c0.096,-0.199 0.218,-0.523 0.272,-0.708l0.236,-0.875c0.074,-0.279 0.214,-0.921 0.31,-1.427c0.019,-0.1 0.041,-0.215 0.064,-0.34c0.098,-0.518 0.228,-1.208 0.317,-1.7c0.113,-0.608 0.27,-1.478 0.35,-1.936c0.053,-0.312 0.11,-0.626 0.147,-0.828l0.017,-0.095c-0.156,-0.051 -0.454,-0.143 -0.736,-0.219l-0.611,-0.168l-2.177,0l-1.031,0.358l-0.242,0.156c-0.148,0.094 -0.418,0.308 -0.574,0.461c-0.162,0.154 -0.424,0.452 -0.571,0.651c-0.145,0.196 -0.358,0.537 -0.466,0.741c-0.117,0.225 -0.302,0.614 -0.415,0.867Z" style="fill:#f5f5f5;"/></g><path d="M148.958,0l-135.416,0c-7.448,0 -13.542,6.094 -13.542,13.542l-0,81.25c-0,7.448 6.094,13.541 13.542,13.541l135.416,0c7.448,0 13.542,-6.093 13.542,-13.541l0,-81.25c0,-7.448 -6.094,-13.542 -13.542,-13.542Zm0,2.708c5.975,0 10.834,4.859 10.834,10.834l-0,81.25c-0,5.974 -4.859,10.833 -10.834,10.833l-135.416,0c-5.975,0 -10.834,-4.859 -10.834,-10.833l0,-81.25c0,-5.975 4.859,-10.834 10.834,-10.834l135.416,0Z" style="fill:#b3b3b3;fill-rule:nonzero;"/></svg>