<?xml version="1.0" encoding="UTF-8" standalone="no"?><!DOCTYPE svg PUBLIC "-//W3C//DTD SVG 1.1//EN" "http://www.w3.org/Graphics/SVG/1.1/DTD/svg11.dtd"><svg width="100%" height="100%" viewBox="0 0 163 109" version="1.1" xmlns="http://www.w3.org/2000/svg" xmlns:xlink="http://www.w3.org/1999/xlink" xml:space="preserve" xmlns:serif="http://www.serif.com/" style="fill-rule:evenodd;clip-rule:evenodd;stroke-linejoin:round;stroke-miterlimit:2;"><path d="M162.5,94.792c0,7.448 -6.094,13.541 -13.542,13.541l-135.416,0c-7.448,0 -13.542,-6.093 -13.542,-13.541l-0,-81.25c-0,-7.448 6.094,-13.542 13.542,-13.542l135.416,-0c7.448,-0 13.542,6.094 13.542,13.542l0,81.25Z" style="fill:#0071cb;"/><path d="M148.958,0l-135.416,0c-7.448,0 -13.542,6.094 -13.542,13.542l-0,81.25c-0,7.448 6.094,13.541 13.542,13.541l135.416,0c7.448,0 13.542,-6.093 13.542,-13.541l0,-81.25c0,-7.448 -6.094,-13.542 -13.542,-13.542Zm0,2.708c5.975,0 10.834,4.859 10.834,10.834l-0,81.25c-0,5.974 -4.859,10.833 -10.834,10.833l-135.416,0c-5.975,0 -10.834,-4.859 -10.834,-10.833l0,-81.25c0,-5.975 4.859,-10.834 10.834,-10.834l135.416,0Z" style="fill:#b3b3b3;fill-rule:nonzero;"/><path d="M31.364,38.055l-14.543,32.182l17.41,0l2.158,-5.131l4.933,-0l2.159,5.131l19.163,0l-0,-3.916l1.707,3.916l9.913,0l1.707,-3.999l0,3.999l39.854,0l4.846,-4.998l4.538,4.998l20.47,0.042l-14.589,-16.043l14.589,-16.181l-20.152,-0l-4.718,4.905l-4.395,-4.905l-43.355,-0l-3.723,8.306l-3.811,-8.306l-17.373,-0l-0,3.783l-1.933,-3.783l-14.855,-0Zm3.368,4.57l8.487,-0l9.646,21.823l-0,-21.823l9.296,-0l7.451,15.647l6.866,-15.647l9.25,-0l0,23.093l-5.628,-0l-0.046,-18.096l-8.206,18.096l-5.035,-0l-8.251,-18.096l-0,18.096l-11.579,-0l-2.195,-5.177l-11.86,-0l-2.19,5.172l-6.204,0l10.198,-23.088Zm56.145,-0l22.887,-0l6.999,7.561l7.226,-7.561l7,-0l-10.636,11.606l10.636,11.473l-7.318,0l-7,-7.649l-7.262,7.649l-22.532,0l0,-23.079Zm-52.016,3.907l-3.908,9.223l7.81,-0l-3.902,-9.223Zm57.668,0.87l0,4.22l12.485,-0l0,4.698l-12.485,0l0,4.603l14.004,-0l6.507,-6.779l-6.231,-6.742l-14.28,0Z" style="fill:#fff;fill-rule:nonzero;"/></svg>