<?xml version="1.0" encoding="UTF-8" standalone="no"?><!DOCTYPE svg PUBLIC "-//W3C//DTD SVG 1.1//EN" "http://www.w3.org/Graphics/SVG/1.1/DTD/svg11.dtd"><svg width="100%" height="100%" viewBox="0 0 163 109" version="1.1" xmlns="http://www.w3.org/2000/svg" xmlns:xlink="http://www.w3.org/1999/xlink" xml:space="preserve" xmlns:serif="http://www.serif.com/" style="fill-rule:evenodd;clip-rule:evenodd;stroke-linejoin:round;stroke-miterlimit:2;"><path d="M162.5,94.792c0,7.448 -6.094,13.541 -13.542,13.541l-135.416,0c-7.448,0 -13.542,-6.093 -13.542,-13.541l-0,-81.25c-0,-7.448 6.094,-13.542 13.542,-13.542l135.416,-0c7.448,-0 13.542,6.094 13.542,13.542l0,81.25Z" style="fill:#fff;"/><g><path d="M53.798,35.405l-0,37.524c-10.326,-3.636 -15.853,-15.126 -11.999,-25.525c1.891,-5.527 6.472,-10.109 11.999,-11.999Z" style="fill-rule:nonzero;"/><path d="M80.268,54.167c0,8.435 -5.308,15.853 -13.235,18.762l0,-37.524c7.927,2.909 13.235,10.326 13.235,18.762Z" style="fill-rule:nonzero;"/><path d="M102.157,21.006l-41.814,-0c-18.253,-0 -33.161,14.908 -33.161,33.161c0,18.253 14.908,33.16 33.161,33.16l41.814,0c18.253,0 33.161,-14.907 33.161,-33.16c-0,-18.253 -14.908,-33.161 -33.161,-33.161Zm-41.814,65.376c-18.035,0 -32.434,-14.399 -32.434,-32.433c0,-18.035 14.399,-32.434 32.434,-32.434c18.035,-0 32.433,14.399 32.433,32.434c0,18.034 -14.398,32.433 -32.433,32.433Z" style="fill:#0b7bbe;fill-rule:nonzero;"/><path d="M53.798,35.405l-0,37.524c-10.326,-3.636 -15.853,-15.126 -11.999,-25.525c1.891,-5.527 6.472,-10.109 11.999,-11.999Z" style="fill-rule:nonzero;"/><path d="M80.268,54.167c0,8.435 -5.308,15.853 -13.235,18.762l0,-37.524c7.927,2.909 13.235,10.326 13.235,18.762Z" style="fill-rule:nonzero;"/><path d="M53.798,72.929c-7.927,-2.909 -13.235,-10.327 -13.235,-18.762c-0,-8.436 5.308,-15.853 13.235,-18.762l-0,37.524Z" style="fill:#0b7bbe;fill-rule:nonzero;"/><path d="M80.268,54.167c0,8.435 -5.308,15.853 -13.235,18.762l0,-37.524c7.927,2.909 13.235,10.326 13.235,18.762Z" style="fill:#0b7bbe;fill-rule:nonzero;"/></g><path d="M148.958,0l-135.416,0c-7.448,0 -13.542,6.094 -13.542,13.542l-0,81.25c-0,7.448 6.094,13.541 13.542,13.541l135.416,0c7.448,0 13.542,-6.093 13.542,-13.541l0,-81.25c0,-7.448 -6.094,-13.542 -13.542,-13.542Zm0,2.708c5.975,0 10.834,4.859 10.834,10.834l-0,81.25c-0,5.974 -4.859,10.833 -10.834,10.833l-135.416,0c-5.975,0 -10.834,-4.859 -10.834,-10.833l0,-81.25c0,-5.975 4.859,-10.834 10.834,-10.834l135.416,0Z" style="fill:#b3b3b3;fill-rule:nonzero;"/></svg>