<?xml version="1.0" encoding="UTF-8" standalone="no"?><!DOCTYPE svg PUBLIC "-//W3C//DTD SVG 1.1//EN" "http://www.w3.org/Graphics/SVG/1.1/DTD/svg11.dtd"><svg width="100%" height="100%" viewBox="0 0 163 109" version="1.1" xmlns="http://www.w3.org/2000/svg" xmlns:xlink="http://www.w3.org/1999/xlink" xml:space="preserve" xmlns:serif="http://www.serif.com/" style="fill-rule:evenodd;clip-rule:evenodd;stroke-linejoin:round;stroke-miterlimit:2;"><path d="M162.5,94.792c0,7.448 -6.094,13.541 -13.542,13.541l-135.416,0c-7.448,0 -13.542,-6.093 -13.542,-13.541l-0,-81.25c-0,-7.448 6.094,-13.542 13.542,-13.542l135.416,-0c7.448,-0 13.542,6.094 13.542,13.542l0,81.25Z" style="fill:#fff;"/><g><rect x="35.626" y="30.558" width="4.998" height="20.895"/><rect x="42.261" y="30.558" width="1.637" height="20.895"/><rect x="45.19" y="30.558" width="2.8" height="20.895"/><rect x="50.662" y="30.558" width="1.637" height="20.895"/><rect x="52.859" y="30.558" width="1.163" height="20.895"/><rect x="31.663" y="30.558" width="1.637" height="47.218" style="fill-rule:nonzero;"/><rect x="28.259" y="30.558" width="2.8" height="47.218" style="fill-rule:nonzero;"/><rect x="62.423" y="30.558" width="4.998" height="20.895"/><rect x="69.058" y="30.558" width="1.637" height="20.895"/><rect x="71.987" y="30.558" width="2.8" height="20.895"/><rect x="77.588" y="30.558" width="1.637" height="20.895"/><rect x="79.785" y="30.558" width="1.163" height="20.895"/><rect x="58.589" y="30.558" width="1.637" height="20.895"/><rect x="55.228" y="30.558" width="2.8" height="20.895"/><rect x="83.016" y="30.558" width="2.8" height="20.895"/><rect x="88.488" y="30.558" width="1.637" height="20.895"/><rect x="90.685" y="30.558" width="1.163" height="20.895"/><rect x="96.415" y="30.558" width="1.637" height="20.895"/><rect x="93.054" y="30.558" width="2.8" height="20.895"/><rect x="100.12" y="30.558" width="1.637" height="20.895"/><rect x="102.317" y="30.558" width="1.163" height="20.895"/><rect x="108.047" y="30.558" width="1.637" height="20.895"/><rect x="104.514" y="30.558" width="2.8" height="20.895"/><rect x="111.02" y="30.558" width="4.998" height="20.895"/><rect x="117.611" y="30.558" width="1.637" height="20.895"/><rect x="120.584" y="30.558" width="2.8" height="20.895"/><rect x="126.012" y="30.558" width="1.637" height="20.895"/><rect x="128.209" y="30.558" width="1.163" height="20.895"/><rect x="131.441" y="30.558" width="2.8" height="47.218" style="fill-rule:nonzero;"/><path d="M35.798,76.914l0,-23.997l8.962,0c1.464,0 2.929,0.302 4.437,0.733c1.034,0.431 2.068,1.163 2.671,2.197c0.603,1.034 0.905,2.068 0.905,3.231c-0,1.034 -0.302,2.068 -0.905,2.93c-0.603,0.861 -1.465,1.766 -2.499,2.197c1.336,0.431 2.499,1.163 3.404,2.197c0.732,1.034 1.163,2.369 1.163,3.662c0,1.034 -0.302,2.068 -0.732,3.102c-0.302,0.905 -1.034,1.637 -1.767,2.197c-0.904,0.431 -1.766,0.905 -2.671,1.163c-1.163,0.302 -2.499,0.431 -3.834,0.431l-9.134,-0.129l0,0.086Zm3.232,-14.002l5.169,0c1.034,0 1.896,-0.129 2.93,-0.301c1.465,-0.302 2.499,-1.767 2.37,-3.231c-0,-0.733 -0.13,-1.465 -0.604,-2.068c-0.301,-0.603 -0.904,-1.034 -1.637,-1.164c-1.163,-0.129 -2.498,-0.301 -3.662,-0.301l-4.868,-0l0.302,7.065Zm-0,11.202l6.031,-0c0.733,-0 1.465,-0 2.197,-0.13c0.603,-0.129 1.164,-0.301 1.767,-0.603c0.43,-0.301 0.904,-0.732 1.163,-1.335c0.258,-0.603 0.431,-1.336 0.431,-2.068c-0,-0.905 -0.302,-1.637 -0.733,-2.37c-0.431,-0.732 -1.034,-1.163 -1.895,-1.335c-1.164,-0.302 -2.37,-0.431 -3.533,-0.431l-5.601,-0l0.13,8.229l0.043,0.043Z" style="fill-rule:nonzero;"/><path d="M56.823,68.211c-0,-3.231 0.904,-5.6 2.628,-7.065c1.464,-1.336 3.403,-1.896 5.428,-1.896c2.197,-0.129 4.265,0.733 5.902,2.37c1.637,1.766 2.37,4.136 2.197,6.462c0.13,1.767 -0.301,3.662 -1.034,5.299c-0.732,1.336 -1.637,2.197 -2.929,2.93c-1.293,0.732 -2.628,1.034 -4.136,1.034c-2.197,0.129 -4.438,-0.733 -5.902,-2.37c-1.638,-1.895 -2.37,-4.265 -2.198,-6.764l0.044,0Zm2.929,0c-0.129,1.767 0.431,3.533 1.465,4.998c0.905,1.034 2.197,1.637 3.662,1.637c1.465,0 2.8,-0.603 3.662,-1.637c1.163,-1.465 1.637,-3.231 1.465,-4.998c0.129,-1.766 -0.302,-3.532 -1.465,-4.868c-0.905,-1.034 -2.197,-1.637 -3.662,-1.637c-1.465,0 -2.8,0.603 -3.662,1.637c-1.034,1.336 -1.637,3.102 -1.465,4.868Z" style="fill-rule:nonzero;"/><rect x="76.425" y="52.917" width="2.93" height="23.997" style="fill-rule:nonzero;"/><path d="M95.855,71.313l3.102,0.431c-0.431,1.637 -1.336,3.102 -2.628,4.136c-1.465,1.034 -3.231,1.637 -4.998,1.465c-2.197,0.129 -4.437,-0.733 -6.031,-2.37c-1.637,-1.895 -2.37,-4.265 -2.197,-6.634c-0.13,-2.499 0.603,-4.869 2.197,-6.764c1.464,-1.637 3.662,-2.499 5.902,-2.37c2.068,-0.129 4.265,0.733 5.601,2.37c1.637,1.895 2.369,4.265 2.197,6.634l-0,0.733l-12.968,-0c0,1.637 0.603,3.231 1.637,4.437c1.034,1.034 2.37,1.465 3.662,1.465c1.034,0 2.068,-0.302 2.801,-0.905c0.861,-0.732 1.464,-1.637 1.766,-2.628l-0.043,0Zm-9.737,-4.696l9.694,0c-0,-1.163 -0.431,-2.369 -1.163,-3.231c-0.862,-1.163 -2.198,-1.766 -3.662,-1.766c-1.336,-0 -2.499,0.431 -3.404,1.335c-0.862,1.034 -1.335,2.37 -1.465,3.662Z" style="fill-rule:nonzero;"/><path d="M108.952,74.243l0.431,2.628c-0.733,0.129 -1.465,0.301 -2.198,0.301c-0.861,0 -1.766,-0.129 -2.498,-0.43c-0.604,-0.302 -1.034,-0.733 -1.164,-1.336c-0.301,-1.163 -0.43,-2.369 -0.301,-3.533l-0,-10.167l-2.197,0l-0,-2.369l2.197,-0l-0,-4.266l2.929,-1.766l0,6.032l2.93,-0l-0,2.369l-2.93,0l0,10.167c0,0.604 0,1.034 0.13,1.637c0.129,0.302 0.301,0.431 0.43,0.604c0.302,0.129 0.733,0.129 1.034,0.129c0.431,0.129 0.733,0.129 1.164,-0l0.043,-0Z" style="fill-rule:nonzero;"/><path d="M110.847,68.211c0,-3.231 0.862,-5.6 2.628,-7.065c3.404,-2.628 8.229,-2.499 11.331,0.431c1.637,1.766 2.369,4.136 2.197,6.462c0.129,1.766 -0.301,3.662 -1.034,5.299c-0.732,1.336 -1.637,2.197 -2.929,2.93c-1.293,0.732 -2.628,1.034 -4.136,1.034c-2.198,0.129 -4.438,-0.733 -5.903,-2.37c-1.637,-1.895 -2.369,-4.265 -2.197,-6.764l0.043,0.043Zm2.93,0c-0.129,1.767 0.431,3.533 1.465,4.998c0.861,1.034 2.197,1.637 3.662,1.637c1.464,0 2.8,-0.603 3.662,-1.637c1.163,-1.465 1.637,-3.231 1.464,-4.998c0.13,-1.766 -0.301,-3.532 -1.464,-4.868c-0.862,-1.034 -2.198,-1.637 -3.662,-1.637c-1.465,0 -2.801,0.603 -3.662,1.637c-1.164,1.336 -1.637,3.102 -1.465,4.868Z" style="fill-rule:nonzero;"/></g><path d="M148.958,0l-135.416,0c-7.448,0 -13.542,6.094 -13.542,13.542l-0,81.25c-0,7.448 6.094,13.541 13.542,13.541l135.416,0c7.448,0 13.542,-6.093 13.542,-13.541l0,-81.25c0,-7.448 -6.094,-13.542 -13.542,-13.542Zm0,2.708c5.975,0 10.834,4.859 10.834,10.834l-0,81.25c-0,5.974 -4.859,10.833 -10.834,10.833l-135.416,0c-5.975,0 -10.834,-4.859 -10.834,-10.833l0,-81.25c0,-5.975 4.859,-10.834 10.834,-10.834l135.416,0Z" style="fill:#b3b3b3;fill-rule:nonzero;"/></svg>