<?xml version="1.0" encoding="UTF-8" standalone="no"?><!DOCTYPE svg PUBLIC "-//W3C//DTD SVG 1.1//EN" "http://www.w3.org/Graphics/SVG/1.1/DTD/svg11.dtd"><svg width="100%" height="100%" viewBox="0 0 163 109" version="1.1" xmlns="http://www.w3.org/2000/svg" xmlns:xlink="http://www.w3.org/1999/xlink" xml:space="preserve" xmlns:serif="http://www.serif.com/" style="fill-rule:evenodd;clip-rule:evenodd;stroke-linejoin:round;stroke-miterlimit:2;"><path d="M162.5,94.792c0,7.448 -6.094,13.541 -13.542,13.541l-135.416,0c-7.448,0 -13.542,-6.093 -13.542,-13.541l-0,-81.25c-0,-7.448 6.094,-13.542 13.542,-13.542l135.416,-0c7.448,-0 13.542,6.094 13.542,13.542l0,81.25Z" style="fill:#fff;"/><clipPath id="_clip1"><path d="M162.5,94.792c0,7.448 -6.094,13.541 -13.542,13.541l-135.416,0c-7.448,0 -13.542,-6.093 -13.542,-13.541l-0,-81.25c-0,-7.448 6.094,-13.542 13.542,-13.542l135.416,-0c7.448,-0 13.542,6.094 13.542,13.542l0,81.25Z"/></clipPath><g clip-path="url(#_clip1)"><g><g id="g972"><g id="path974"><path d="M62.789,72.801c-0.524,-0 -0.927,-0.403 -0.927,-0.927l0,-23.665c0,-4.878 3.951,-8.829 8.829,-8.829l6.974,0c4.878,0 8.829,3.951 8.829,8.829l0,4.999c0,4.878 -3.951,8.829 -8.829,8.829l-9.877,0c-0.524,0 -0.927,-0.403 -0.927,-0.927c0,-0.524 0.403,-0.927 0.927,-0.927l9.877,-0c3.83,-0 6.975,-3.145 6.975,-6.975l-0,-4.999c-0,-3.83 -3.024,-6.853 -6.854,-6.974l-6.974,-0c-3.83,-0 -6.974,3.144 -6.974,6.974l-0,23.665c-0,0.524 -0.524,0.927 -1.049,0.927Z" style="fill-rule:nonzero;"/></g></g><g id="g976"><g id="path978"><path d="M93.711,62.158c-0.525,-0 -0.928,-0.403 -0.928,-0.927l0,-17.618c0,-1.169 -1.048,-2.217 -2.217,-2.217l-3.024,0c-0.524,0 -0.927,-0.403 -0.927,-0.927c0,-0.524 0.403,-0.927 0.927,-0.927l3.024,-0c2.379,-0 4.193,1.854 4.193,4.192l-0,17.618c-0.121,0.403 -0.524,0.806 -1.048,0.806Z" style="fill-rule:nonzero;"/></g></g><g id="g980"><g id="path982"><path d="M93.066,37.566l-1.331,-1.33c-0.403,-0.282 -0.403,-0.645 -0.121,-1.048l1.452,-1.452c0.282,-0.282 0.806,-0.403 1.048,-0.121l1.451,1.452c0.403,0.282 0.403,0.645 0.121,1.048l-1.451,1.451c-0.283,0.282 -0.738,0.432 -1.169,0c996.597,194.154 996.677,194.235 -0,0" style="fill:#3eb6aa;fill-rule:nonzero;"/></g></g><g id="g984"><g id="path986"><path d="M115.279,50.709c-0.928,-0 -1.693,-0.403 -2.379,-0.928l-6.974,-6.974c-0.927,-0.927 -2.097,-1.451 -3.427,-1.451l-3.023,-0c-0.525,-0 -0.928,-0.403 -0.928,-0.927c0,-0.525 0.403,-0.928 0.928,-0.928l3.023,0c1.855,0 3.548,0.645 4.717,1.976l6.974,6.974c0.524,0.524 1.331,0.524 1.855,0l6.974,-6.974c1.33,-1.331 2.903,-1.976 4.717,-1.976l2.499,0c0.524,0 0.928,0.403 0.928,0.928c-0,0.524 -0.404,0.927 -0.928,0.927l-2.499,-0c-1.331,-0 -2.5,0.524 -3.427,1.451l-6.974,6.974c-0.524,0.646 -1.331,0.928 -2.097,0.928l0.041,-0Z" style="fill-rule:nonzero;"/></g></g><g id="g988"><g id="path990"><path d="M102.58,62.037l-3.064,0c-0.524,0 -0.927,-0.403 -0.927,-0.927c-0,-0.524 0.403,-0.927 0.927,-0.927l3.023,-0c1.331,-0 2.5,-0.525 3.427,-1.452l6.974,-6.974c0.646,-0.645 1.452,-0.927 2.379,-0.927c0.927,-0 1.693,0.403 2.379,0.927l6.974,6.974c0.927,0.927 2.096,1.452 3.427,1.452l2.499,-0c0.524,-0 0.927,0.403 0.927,0.927c0,0.524 -0.403,0.927 -0.927,0.927l-2.499,0c-1.855,0 -3.548,-0.645 -4.717,-1.975l-6.974,-6.975c-0.525,-0.524 -1.331,-0.524 -1.855,0l-6.974,6.975c-1.331,1.33 -3.145,1.975 -4.999,1.975Z" style="fill-rule:nonzero;"/></g></g><g id="g992"><g id="path994"><path d="M44.89,65.585c-1.451,-0 -2.903,-0.645 -3.951,-1.694l-5.805,-5.805c-0.403,-0.403 -1.048,-0.403 -1.451,0l-5.806,5.805c-1.048,1.049 -2.499,1.694 -3.951,1.694l-1.169,-0l7.217,7.216c2.378,2.217 5.926,2.217 8.304,-0l7.378,-7.378l-0.806,0l-0,0.121l0.04,0.041Z" style="fill:#3eb6aa;fill-rule:nonzero;"/></g></g><g id="g996"><g id="path998"><path d="M23.967,45.307c1.451,-0 2.902,0.645 3.951,1.693l5.805,5.805c0.403,0.403 1.048,0.403 1.451,0l5.805,-5.805c1.049,-1.048 2.5,-1.693 3.951,-1.693l0.645,-0l-7.377,-7.378c-2.379,-2.217 -5.926,-2.217 -8.305,0l-7.216,7.216l1.33,0.121l-0.04,0.041Z" style="fill:#3eb6aa;fill-rule:nonzero;"/></g></g><g id="g1000"><g id="path1002"><path d="M51.743,51.233l-4.475,-4.475l-2.217,-0c-1.048,-0 -2.096,0.403 -2.782,1.169l-5.805,5.805c-0.524,0.524 -1.169,0.807 -1.975,0.807c-0.806,-0 -1.452,-0.283 -1.976,-0.807l-5.805,-5.805c-0.645,-0.806 -1.693,-1.169 -2.782,-1.169l-2.781,-0l-4.475,4.475c-2.217,2.378 -2.217,5.926 -0,8.305l4.475,4.474l2.781,0c1.049,0 2.097,-0.403 2.782,-1.169l5.805,-5.805c1.049,-1.048 2.903,-1.048 3.951,0l5.805,5.805c0.645,0.807 1.694,1.169 2.782,1.169l2.217,0l4.475,-4.474c2.218,-2.379 2.218,-5.927 0,-8.305" style="fill:#3eb6aa;fill-rule:nonzero;"/></g></g><g id="g1004"><g id="path1006"><path d="M68.837,69.777c-0.283,0 -0.645,0.121 -1.049,0.121l0,1.452c0.283,0.121 0.525,0.121 0.807,0.121c0.645,-0 1.048,-0.283 1.048,-0.928c-0,-0.403 -0.282,-0.806 -0.524,-0.806l-0.282,0m-1.452,2.661l0,-2.943l0.282,-0l0,0.121c0.404,-0.121 0.807,-0.121 1.17,-0.121c0.282,-0 0.524,-0 0.806,0.282c0.282,0.282 0.282,0.524 0.282,0.927c0,0.403 -0.121,0.807 -0.524,0.928c-0.282,0.12 -0.524,0.12 -0.806,0.12c-0.282,0 -0.645,-0.12 -0.928,-0.12l0,0.806l-0.282,-0Z" style="fill-rule:nonzero;"/></g></g><g id="g1008"><g id="path1010"><path d="M71.739,69.898c-0.645,0 -1.048,0.283 -1.048,0.928c0,0.645 0.282,0.927 1.048,0.927c0.766,-0 1.048,-0.282 1.048,-0.927c0,-0.645 -0.282,-0.928 -1.048,-0.928m0.927,1.694c-0.282,0.12 -0.645,0.282 -0.927,0.282c-0.403,-0 -0.645,-0 -0.927,-0.282c-0.282,-0.283 -0.403,-0.525 -0.403,-0.928c-0,-0.403 0.121,-0.645 0.403,-0.927c0.282,-0.121 0.645,-0.282 0.927,-0.282c0.403,-0 0.645,-0 0.927,0.282c0.525,0.524 0.525,1.33 0,1.855" style="fill-rule:nonzero;"/></g></g><g id="g1012"><g id="path1014"><path d="M76.093,71.753l-0.806,-1.693l-0.806,1.693l-0.283,-0l-0.927,-2.097l0.282,0l0.645,1.694l0.807,-1.694l0.282,0l0.806,1.694l0.645,-1.694l0.282,0l-0.927,2.097Z" style="fill-rule:nonzero;"/></g></g><g id="g1016"><g id="path1018"><path d="M78.835,69.777c-0.645,0 -0.928,0.283 -0.928,0.807l1.855,-0c-0.121,-0.524 -0.282,-0.807 -0.927,-0.807m-0.121,1.976c-0.524,0.121 -1.049,-0.282 -1.169,-0.806l-0,-0.404c-0,-0.403 0.12,-0.645 0.403,-0.927c0.282,-0.121 0.524,-0.282 0.806,-0.282c0.282,-0 0.524,-0 0.806,0.282c0.282,0.282 0.403,0.524 0.403,0.927l-2.096,0c0,0.404 0.121,0.807 0.927,0.807c0.403,-0 0.645,-0 1.048,-0.121l0,0.282c-0.403,0.282 -0.806,0.403 -1.048,0.282" style="fill-rule:nonzero;"/></g></g><g id="g1020"><g id="path1022"><path d="M80.568,71.753l0,-2.097l0.282,0l0,0.121c0.403,-0.121 0.645,-0.121 1.048,-0.121l0,0.283c-0.282,-0 -0.645,-0 -0.927,0.121l0,1.693l-0.403,-0Z" style="fill-rule:nonzero;"/></g></g><g id="g1024"><g id="path1026"><path d="M83.309,69.777c-0.645,0 -0.927,0.283 -0.927,0.807l1.855,-0c-0,-0.524 -0.283,-0.807 -0.928,-0.807m0,1.976c-0.524,0.121 -1.048,-0.282 -1.169,-0.806l0,-0.404c0,-0.403 0.121,-0.645 0.403,-0.927c0.283,-0.121 0.525,-0.282 0.807,-0.282c0.282,-0 0.524,-0 0.806,0.282c0.282,0.282 0.403,0.524 0.403,0.927l-2.096,0c-0,0.404 0.121,0.807 0.927,0.807c0.403,-0 0.645,-0 1.048,-0.121l0,0.282c-0.403,0.282 -0.806,0.403 -1.048,0.282" style="fill-rule:nonzero;"/></g></g><g id="g1028"><g id="path1030"><path d="M87.139,69.898c-0.282,-0.121 -0.524,-0.121 -0.806,-0.121c-0.645,0 -1.048,0.283 -1.048,0.928c-0,0.645 0.282,0.927 0.806,0.927c0.282,-0 0.645,-0.121 1.048,-0.121l0,-1.613Zm0,1.855l-1.169,-0c-0.282,-0 -0.524,-0 -0.806,-0.282c-0.282,-0.283 -0.282,-0.524 -0.282,-0.928c-0,-0.403 0.121,-0.806 0.524,-0.927c0.282,-0.121 0.524,-0.121 0.806,-0.121c0.282,0 0.645,0 0.927,0.121l0,-0.927l0.283,-0l-0,3.023l-0.283,0l0,0.041Z" style="fill-rule:nonzero;"/></g></g><g id="g1032"><g id="path1034"><path d="M91.09,69.777c-0.282,0 -0.645,0.121 -1.048,0.121l-0,1.452c0.282,0.121 0.524,0.121 0.806,0.121c0.645,-0 1.048,-0.283 1.048,-0.928c0,-0.403 -0.282,-0.806 -0.524,-0.806l-0.282,0m0.524,1.855c-0.282,0.12 -0.524,0.12 -0.806,0.12c-0.282,0 -0.645,0 -0.927,-0.12l-0,0.12l-0.121,0l-0,-3.023l0.282,-0l-0,1.048c0.403,-0.121 0.645,-0.121 1.048,-0.121c0.282,0 0.524,0 0.806,0.282c0.283,0.283 0.283,0.524 0.283,0.928c-0,0.403 -0.283,0.645 -0.524,0.806" style="fill-rule:nonzero;"/></g></g><g id="g1036"><g id="path1038"><path d="M92.38,72.559l0,-0.282l0.282,-0c0.283,-0 0.524,-0.121 0.645,-0.403l0.121,-0.121l-1.048,-2.097l0.282,0l0.928,1.855l0.927,-1.855l0.282,0l-1.169,2.379c-0.121,0.403 -0.524,0.524 -0.927,0.524l-0.283,0" style="fill-rule:nonzero;"/></g></g><g id="g1040"><g id="path1042"><path d="M98.064,70.584l-0.806,-0l0,0.806l0.806,-0c0.525,-0 0.807,-0 0.807,-0.403c-0,-0.403 -0.282,-0.403 -0.807,-0.403m-0.12,-1.169l-0.645,-0l-0,0.806l0.645,-0c0.524,-0 0.806,-0.121 0.806,-0.403c-0,-0.403 -0.282,-0.403 -0.806,-0.403m1.169,2.096c-0.403,0.121 -0.928,0.282 -1.331,0.282l-1.169,0l0,-2.782l1.169,0c0.403,0 0.807,0 1.169,0.121c0.283,0.121 0.283,0.283 0.283,0.524c-0,0.242 -0.121,0.525 -0.404,0.645c0.404,0.121 0.646,0.283 0.646,0.646c-0,0.362 -0.121,0.403 -0.404,0.524" style="fill-rule:nonzero;"/></g></g><g id="g1044"><g id="path1046"><path d="M102.015,70.826l-0.806,-0c-0.403,-0 -0.524,0.121 -0.524,0.282c-0,0.161 0.121,0.282 0.403,0.282c0.282,-0 0.645,-0 0.927,-0.121l0,-0.443Zm0.121,0.927l-1.169,-0c-0.282,-0 -0.524,-0 -0.645,-0.121c-0.121,-0.121 -0.282,-0.282 -0.282,-0.524c-0,-0.242 0.121,-0.403 0.403,-0.524c0.282,-0.121 0.524,-0.121 0.806,-0.121l0.807,-0c-0,-0.282 -0.283,-0.403 -0.807,-0.403l-0.806,-0l0,-0.404l0.927,0c0.403,0 0.807,0 0.928,0.121c0.12,0.121 0.282,0.404 0.282,0.645l-0,1.17l-0.403,-0l-0,0.12l-0.041,0.041Z" style="fill-rule:nonzero;"/></g></g><g id="g1048"><g id="path1050"><path d="M105.281,71.914l-0,-1.33c-0,-0.403 -0.121,-0.524 -0.524,-0.524c-0.283,-0 -0.524,-0 -0.807,0.121l0,1.572l-0.524,-0l0,-2.097l0.524,0l0,0.121c0.404,-0.121 0.645,-0.121 1.049,-0.121c0.282,0 0.524,0 0.645,0.283c0.121,0.121 0.282,0.403 0.282,0.645l-0,1.33l-0.645,0Z" style="fill-rule:nonzero;"/></g></g><g id="g1052"><g id="path1054"><path d="M107.538,71.753c-0.282,-0 -0.524,-0 -0.806,-0.282c-0.524,-0.524 -0.524,-1.331 0,-1.855c0.282,-0.121 0.645,-0.282 0.927,-0.282l0.807,-0l-0,0.403l-0.645,0c-0.525,0 -0.807,0.121 -0.807,0.645c0,0.524 0.121,0.645 0.645,0.645c0.283,0 0.645,0 0.928,-0.121l-0,0.403c-0.283,0.403 -0.645,0.524 -1.049,0.403" style="fill-rule:nonzero;"/></g></g><g id="g1056"><g id="path1058"><path d="M110.159,70.06c-0.524,-0 -0.806,0.121 -0.806,0.645c-0,0.524 0.282,0.645 0.806,0.645c0.524,-0 0.806,-0.121 0.806,-0.645c0,-0.524 -0.282,-0.645 -0.806,-0.645m1.048,1.572c-0.282,0.121 -0.645,0.282 -1.048,0.282c-0.403,0 -0.806,0 -1.048,-0.282c-0.283,-0.282 -0.404,-0.524 -0.404,-0.927c0,-0.404 0.121,-0.645 0.404,-0.928c0.282,-0.121 0.645,-0.282 1.048,-0.282c0.403,0 0.806,0 1.048,0.282c0.282,0.283 0.403,0.524 0.403,0.928c0,0.403 -0.121,0.645 -0.403,0.927" style="fill-rule:nonzero;"/></g></g><g id="g1060"><g id="path1062"><path d="M114.916,71.753c-0.403,-0 -0.806,-0 -1.048,-0.282c-0.403,-0.283 -0.403,-0.645 -0.403,-1.17c-0,-0.403 0.121,-0.927 0.524,-1.169c0.403,-0.282 0.806,-0.282 1.169,-0.282l0.927,0l0,0.524l-0.927,0c-0.807,0 -1.169,0.282 -1.169,0.927c-0,0.646 0.282,0.928 0.927,0.928c0.403,-0 0.806,-0.121 1.33,-0.121l0,0.524c-0.403,-0 -0.806,0.121 -1.33,0.121" style="fill-rule:nonzero;"/></g></g><g id="g1064"><g id="path1066"><path d="M118.06,70.06c-0.524,-0 -0.645,0.121 -0.645,0.524l1.452,-0c-0.121,-0.403 -0.403,-0.645 -0.807,-0.524m-0.121,1.854c-0.403,0 -0.645,0 -0.927,-0.282c-0.282,-0.282 -0.403,-0.524 -0.403,-0.927c0,-0.404 0.121,-0.645 0.403,-0.928c0.282,-0.121 0.645,-0.282 0.927,-0.282c0.404,0 0.645,0 0.928,0.282c0.282,0.283 0.524,0.645 0.403,1.049l-1.976,-0c0,0.282 0.121,0.524 0.807,0.524c0.403,-0 0.645,-0 1.048,-0.121l-0,0.403c-0.403,0.121 -0.806,0.282 -1.169,0.282" style="fill-rule:nonzero;"/></g></g><g id="g1068"><g id="path1070"><path d="M121.85,71.914l-0,-1.33c-0,-0.403 -0.121,-0.524 -0.524,-0.524c-0.282,-0 -0.524,-0 -0.806,0.121l-0,1.572l-0.525,-0l0,-2.097l0.525,0l-0,0.121c0.403,-0.121 0.645,-0.121 1.048,-0.121c0.282,0 0.524,0 0.645,0.283c0.121,0.121 0.282,0.403 0.282,0.645l-0,1.33l-0.645,0Z" style="fill-rule:nonzero;"/></g></g><g id="g1072"><g id="path1074"><path d="M124.108,71.753c-0.283,-0 -0.525,-0.121 -0.645,-0.282c-0.121,-0.162 -0.121,-0.404 -0.121,-0.645l-0,-0.807l-0.404,0l0,-0.403l0.404,0l-0,-0.645l0.524,0l-0,0.645l0.806,0l-0,0.403l-0.806,0l-0,1.048c-0,0 0.282,0.121 0.403,0.121l0.403,0l-0,0.404c-0,-0 -0.282,0.12 -0.524,0.12" style="fill-rule:nonzero;"/></g></g><g id="g1076"><g id="path1078"><path d="M125.277,71.753l-0,-2.097l0.524,0l-0,0.121c0.403,-0.121 0.645,-0.121 1.048,-0.121l0.121,0l-0,0.525l-0.282,-0c-0.283,-0 -0.524,-0 -0.807,0.12l0,1.573l-0.645,-0l0,-0.121l0.041,-0Z" style="fill-rule:nonzero;"/></g></g><g id="g1080"><g id="path1082"><path d="M128.986,70.826l-0.807,-0c-0.403,-0 -0.524,0.121 -0.524,0.282c0,0.161 0.121,0.282 0.403,0.282c0.283,-0 0.645,-0 0.928,-0.121l-0,-0.443Zm0.121,0.927l-1.17,-0c-0.282,-0 -0.524,-0 -0.645,-0.121c-0.121,-0.121 -0.282,-0.282 -0.282,-0.524c0,-0.242 0.121,-0.403 0.403,-0.524c0.283,-0.121 0.524,-0.121 0.807,-0.121l0.806,-0c-0,-0.282 -0.282,-0.403 -0.806,-0.403l-0.807,-0l0,-0.404l0.928,0c0.403,0 0.806,0 0.927,0.121c0.121,0.121 0.282,0.404 0.282,0.645l-0,1.17l-0.403,-0l-0,0.12l-0.04,0.041Z" style="fill-rule:nonzero;"/></g></g><g id="path1084"><rect x="130.276" y="68.85" width="0.524" height="3.024" style="fill-rule:nonzero;"/></g></g></g><path d="M148.958,0l-135.416,0c-7.448,0 -13.542,6.094 -13.542,13.542l-0,81.25c-0,7.448 6.094,13.541 13.542,13.541l135.416,0c7.448,0 13.542,-6.093 13.542,-13.541l0,-81.25c0,-7.448 -6.094,-13.542 -13.542,-13.542Zm0,2.708c5.975,0 10.834,4.859 10.834,10.834l-0,81.25c-0,5.974 -4.859,10.833 -10.834,10.833l-135.416,0c-5.975,0 -10.834,-4.859 -10.834,-10.833l0,-81.25c0,-5.975 4.859,-10.834 10.834,-10.834l135.416,0Z" style="fill:#b3b3b3;fill-rule:nonzero;"/></svg>