<?xml version="1.0" encoding="UTF-8" standalone="no"?><!DOCTYPE svg PUBLIC "-//W3C//DTD SVG 1.1//EN" "http://www.w3.org/Graphics/SVG/1.1/DTD/svg11.dtd"><svg width="100%" height="100%" viewBox="0 0 1421 112" version="1.1" xmlns="http://www.w3.org/2000/svg" xmlns:xlink="http://www.w3.org/1999/xlink" xml:space="preserve" xmlns:serif="http://www.serif.com/" style="fill-rule:evenodd;clip-rule:evenodd;stroke-linejoin:round;stroke-miterlimit:2;"><rect id="Prancheta1" x="0" y="0" width="1420.84" height="111.5" style="fill:none;"/><clipPath id="_clip1"><rect id="Prancheta11" serif:id="Prancheta1" x="0" y="0" width="1420.84" height="111.5"/></clipPath><g clip-path="url(#_clip1)"><g><path d="M697.414,94.727c0,7.121 -5.826,12.948 -12.948,12.948l-129.481,0c-7.122,0 -12.948,-5.827 -12.948,-12.948l-0,-77.689c-0,-7.121 5.826,-12.948 12.948,-12.948l129.481,-0c7.122,-0 12.948,5.827 12.948,12.948l0,77.689Z" style="fill:#fff;"/><path d="M684.466,4.09l-129.481,-0c-7.122,-0 -12.948,5.827 -12.948,12.948l-0,77.689c-0,7.121 5.826,12.948 12.948,12.948l129.481,0c7.122,0 12.948,-5.827 12.948,-12.948l0,-77.689c0,-7.121 -5.826,-12.948 -12.948,-12.948Zm0,2.59c5.713,-0 10.359,4.645 10.359,10.358l-0,77.689c-0,5.713 -4.646,10.358 -10.359,10.358l-129.481,0c-5.713,0 -10.359,-4.645 -10.359,-10.358l0,-77.689c0,-5.713 4.646,-10.358 10.359,-10.358l129.481,-0Z" style="fill:#b3b3b3;fill-rule:nonzero;"/><g><path d="M661.39,81.849l-103.404,0.036l0,-0.123c0,-0.07 0.083,-0.511 0.183,-0.987c0.1,-0.473 0.257,-1.228 0.347,-1.675c0.09,-0.447 0.246,-1.208 0.344,-1.689c0.098,-0.483 0.262,-1.284 0.365,-1.783c0.103,-0.499 0.262,-1.287 0.355,-1.753c0.092,-0.464 0.249,-1.225 0.347,-1.688c0.097,-0.465 0.262,-1.267 0.367,-1.783c0.105,-0.517 0.265,-1.305 0.355,-1.753c0.09,-0.447 0.233,-1.138 0.318,-1.534c0.085,-0.395 0.193,-0.93 0.242,-1.189c0.046,-0.257 0.2,-1.018 0.342,-1.691c0.141,-0.673 0.295,-1.432 0.344,-1.688c0.049,-0.257 0.205,-1.018 0.344,-1.691c0.142,-0.671 0.296,-1.431 0.345,-1.688c0.048,-0.257 0.203,-1.018 0.346,-1.689c0.142,-0.67 0.296,-1.418 0.342,-1.657c0.046,-0.239 0.17,-0.861 0.275,-1.378c0.106,-0.516 0.309,-1.488 0.447,-2.158c0.139,-0.671 0.378,-1.84 0.532,-2.598c0.154,-0.758 0.334,-1.657 0.404,-2.002c0.069,-0.344 0.197,-0.963 0.282,-1.377c0.085,-0.414 0.239,-1.159 0.342,-1.658c0.103,-0.498 0.272,-1.315 0.375,-1.814c0.103,-0.498 0.26,-1.274 0.35,-1.721c0.09,-0.447 0.244,-1.193 0.341,-1.658c0.098,-0.465 0.268,-1.282 0.376,-1.814c0.108,-0.534 0.29,-1.349 0.403,-1.814c0.113,-0.465 0.272,-1.028 0.357,-1.252c0.082,-0.223 0.311,-0.709 0.506,-1.076l0.358,-0.671l0.323,-0.424c0.178,-0.234 0.496,-0.601 0.707,-0.82c0.211,-0.218 0.565,-0.544 0.789,-0.727c0.224,-0.182 0.547,-0.429 0.719,-0.547c0.173,-0.118 0.509,-0.327 0.751,-0.46c0.241,-0.136 0.578,-0.311 0.75,-0.393c0.172,-0.083 0.524,-0.229 0.781,-0.329c0.257,-0.1 0.751,-0.267 1.095,-0.373c0.344,-0.105 0.989,-0.262 1.436,-0.349c0.445,-0.088 1.149,-0.206 1.565,-0.262l0.756,-0.101l103.464,-0.041l0,0.124c0,0.069 -0.082,0.511 -0.184,0.986c-0.101,0.473 -0.271,1.285 -0.378,1.802c-0.106,0.516 -0.26,1.261 -0.342,1.657c-0.082,0.396 -0.239,1.156 -0.35,1.691c-0.108,0.534 -0.277,1.349 -0.372,1.814c-0.095,0.465 -0.252,1.226 -0.345,1.691c-0.092,0.465 -0.249,1.226 -0.346,1.688c-0.098,0.465 -0.247,1.198 -0.334,1.627c-0.088,0.429 -0.245,1.205 -0.35,1.721c-0.105,0.517 -0.275,1.334 -0.375,1.815c-0.1,0.48 -0.257,1.228 -0.344,1.657c-0.088,0.429 -0.244,1.205 -0.35,1.722c-0.105,0.516 -0.272,1.333 -0.375,1.814c-0.103,0.481 -0.252,1.213 -0.337,1.627c-0.082,0.413 -0.239,1.187 -0.349,1.721c-0.108,0.535 -0.268,1.308 -0.35,1.722c-0.084,0.414 -0.236,1.146 -0.336,1.627c-0.101,0.482 -0.273,1.313 -0.381,1.844c-0.108,0.535 -0.264,1.293 -0.347,1.689c-0.082,0.396 -0.233,1.141 -0.339,1.657c-0.105,0.516 -0.272,1.334 -0.372,1.814c-0.1,0.481 -0.255,1.242 -0.347,1.689c-0.09,0.447 -0.249,1.22 -0.352,1.721c-0.103,0.499 -0.27,1.316 -0.373,1.814c-0.102,0.499 -0.254,1.247 -0.339,1.658c-0.085,0.413 -0.239,1.174 -0.344,1.691c-0.106,0.516 -0.275,1.328 -0.381,1.809l-0.187,0.868l-0.224,0.602c-0.123,0.331 -0.308,0.77 -0.411,0.976c-0.103,0.206 -0.313,0.571 -0.468,0.809c-0.154,0.239 -0.367,0.545 -0.478,0.682c-0.11,0.136 -0.434,0.483 -0.724,0.776l-0.527,0.529l-0.509,0.36c-0.28,0.198 -0.58,0.4 -0.668,0.449c-0.087,0.049 -0.424,0.221 -0.748,0.383c-0.324,0.162 -0.778,0.368 -1.012,0.458c-0.234,0.09 -0.699,0.241 -1.033,0.339c-0.334,0.098 -0.691,0.192 -0.794,0.213c-0.103,0.021 -0.463,0.095 -0.797,0.165c-0.334,0.071 -1.01,0.177 -1.501,0.236l-0.893,0.105Z" style="fill:#b7232c;"/><path d="M586.64,44.934l0.198,-0.849l-3.772,0l-0.082,0.576c-0.021,0.162 -0.098,0.614 -0.162,1.008l-0.029,0.159c-0.071,0.403 -0.174,0.997 -0.249,1.405c-0.082,0.466 -0.236,1.355 -0.339,1.977c-0.103,0.619 -0.234,1.444 -0.29,1.826l-0.065,0.427l-4.252,0.087l-1.899,-0.046c-0.712,-0.018 -1.241,-0.033 -1.555,-0.043c0.008,-0.055 0.018,-0.116 0.031,-0.178c0.051,-0.288 0.144,-0.791 0.211,-1.115c0.066,-0.329 0.192,-0.979 0.28,-1.444c0.087,-0.471 0.187,-1.054 0.223,-1.3c0.031,-0.234 0.1,-0.625 0.152,-0.869c0.054,-0.252 0.157,-0.784 0.223,-1.179c0.062,-0.358 0.129,-0.689 0.147,-0.753l0.208,-0.538l-3.803,0l-0.147,0.81c-0.053,0.306 -0.125,0.738 -0.159,0.966c-0.033,0.224 -0.149,0.938 -0.254,1.591l-0.691,4.319c-0.106,0.653 -0.275,1.663 -0.381,2.246c-0.108,0.586 -0.259,1.414 -0.342,1.843l-0.344,1.814c-0.108,0.57 -0.265,1.367 -0.349,1.778c-0.085,0.419 -0.18,0.9 -0.211,1.074c-0.031,0.17 -0.126,0.663 -0.213,1.095c-0.062,0.308 -0.167,0.845 -0.167,0.956l-0,0.421l3.636,0l0.755,-4.584c0.108,-0.637 0.265,-1.578 0.355,-2.094c0.087,-0.514 0.228,-1.316 0.311,-1.776c0.054,-0.3 0.1,-0.529 0.12,-0.647l7.679,-0l-0.013,0.069c-0.039,0.2 -0.157,0.812 -0.257,1.364l-0.381,2.067c-0.107,0.583 -0.262,1.413 -0.344,1.844c-0.082,0.429 -0.252,1.334 -0.372,2.005c-0.067,0.375 -0.227,1.254 -0.227,1.354l0.006,0.398l3.641,0l0.113,-0.657c0.038,-0.216 0.097,-0.609 0.136,-0.869c0.036,-0.257 0.121,-0.802 0.19,-1.213l0.311,-1.814c0.1,-0.589 0.267,-1.586 0.375,-2.223c0.106,-0.637 0.263,-1.565 0.347,-2.063c0.088,-0.499 0.239,-1.339 0.339,-1.874l1.074,-5.851c0.098,-0.583 0.232,-1.254 0.288,-1.5Z" style="fill:#f5f5f5;"/><path d="M590.212,54.707l0.342,-1.783c0.087,-0.465 0.257,-1.344 0.38,-1.961c0.126,-0.632 0.221,-1.058 0.249,-1.125l0.303,-0.496l-3.579,0.044l-0.152,1.087c-0.061,0.449 -0.197,1.331 -0.303,1.965l-0.349,2.161c-0.088,0.55 -0.242,1.432 -0.342,1.964l-0.342,1.814c-0.087,0.465 -0.244,1.279 -0.347,1.811c-0.102,0.532 -0.244,1.234 -0.31,1.56c-0.065,0.319 -0.134,0.64 -0.155,0.717l-0.146,0.545l3.332,-0l0.116,-0.303c0.057,-0.149 0.059,-0.406 0.059,-0.435c0,-0.082 0.067,-0.603 0.185,-1.336c0.106,-0.642 0.275,-1.688 0.381,-2.323c0.105,-0.637 0.259,-1.565 0.344,-2.066c0.082,-0.496 0.234,-1.323 0.334,-1.84Z" style="fill:#f5f5f5;"/><path d="M589.356,47.691l0.948,0.033l0.656,-0.22l0.658,-0.62l0.354,-0.837l0.031,-1.265l-0.298,-0.493l-0.619,-0.424l-1.033,-0l-0.769,0.313l-0.475,0.473l-0.355,0.781l-0.084,1.267l0.362,0.71l0.624,0.282Z" style="fill:#f5f5f5;"/><path d="M603.7,50.901l0.424,0.846l0.286,1.21l0.09,1.177l-0.073,0.719c-0.041,0.365 -0.131,0.966 -0.202,1.339l-0.127,0.65l-0.251,0.789c-0.141,0.432 -0.376,1.061 -0.522,1.406c-0.136,0.321 -0.349,0.758 -0.475,0.94c-0.013,0.02 -0.026,0.041 -0.039,0.061c-0.04,0.061 -0.075,0.118 -0.095,0.153c-0.025,0.079 -0.105,0.208 -0.347,0.524c-0.174,0.231 -0.503,0.604 -0.732,0.832l-0.409,0.406l-0.488,0.329c-0.259,0.17 -0.635,0.38 -0.856,0.481l-0.375,0.172l-1.452,0.378l-1.351,0.09l-1.157,-0.157l-0.963,-0.414l-0.648,-0.653c-0.051,0.345 -0.126,0.843 -0.19,1.252l-0.619,3.921c-0.06,0.38 -0.095,0.709 -0.095,0.776c-0,0.113 -0.018,0.286 -0.057,0.394l-0.123,0.308l-3.318,-0l0.129,-0.538c0.018,-0.076 0.116,-0.554 0.218,-1.066c0.103,-0.514 0.27,-1.385 0.373,-1.937c0.103,-0.547 0.275,-1.478 0.383,-2.064l0.686,-3.721c0.102,-0.57 0.272,-1.523 0.375,-2.125l0.689,-4.098c0.102,-0.62 0.277,-1.694 0.388,-2.39l0.244,-1.539l2.901,-0l-0.01,0.331c-0.003,0.106 -0.039,0.319 -0.072,0.491c0.066,-0.047 0.127,-0.087 0.154,-0.105c0.006,-0.003 0.01,-0.006 0.013,-0.008c0.203,-0.126 0.555,-0.316 0.786,-0.424l0.421,-0.193l1.021,-0.267l1.228,-0.146l1.125,0.074l1.115,0.267l1.126,0.589l0.871,0.94Zm-2.716,4.923l0.054,-2.269l-0.095,-0.357c-0.052,-0.198 -0.157,-0.488 -0.226,-0.622l-0.124,-0.249l-0.467,-0.468l-0.597,-0.274l-0.806,-0.163l-1.08,0.065l-0.801,0.257l-0.27,0.162c-0.165,0.092 -0.46,0.3 -0.648,0.457l-0.27,0.224l-0.141,0.755c-0.09,0.473 -0.252,1.357 -0.357,1.956c-0.106,0.606 -0.265,1.48 -0.355,1.945l-0.162,0.845l-0.054,0.99l0.067,0.292c0.041,0.163 0.131,0.435 0.201,0.592l0.113,0.254l0.4,0.383l0.607,0.275l0.642,0.113l0.928,-0.065l0.971,-0.331l0.191,-0.141c0.118,-0.088 0.313,-0.244 0.429,-0.345c0.095,-0.082 0.283,-0.287 0.4,-0.455c0.114,-0.156 0.327,-0.508 0.471,-0.781l0.262,-0.496l0.192,-0.567c0.119,-0.34 0.283,-0.913 0.365,-1.277l0.16,-0.705Z" style="fill:#f5f5f5;"/><path d="M617.316,52.821l-0.002,0.576l-0.088,0.729c-0.051,0.381 -0.143,0.9 -0.202,1.157l-0.165,0.696l-7.218,-0.048l-1.604,0.074l-0.174,1.136l0.005,1.47l0.228,0.801l0.332,0.561l0.424,0.38l0.259,0.128c0.152,0.077 0.44,0.19 0.633,0.252l0.323,0.103l2.141,-0.002l1.316,-0.265l0.616,-0.206c0.373,-0.121 0.748,-0.259 0.851,-0.311l0.434,-0.21l0.288,0.277l0.033,0.242l-0.154,0.742c-0.082,0.401 -0.167,0.851 -0.187,1.003l-0.07,0.508l-0.982,0.216c-0.406,0.087 -1.068,0.211 -1.477,0.267c-0.383,0.054 -1.01,0.124 -1.393,0.159l-0.704,0.065l-0.704,-0.008c-0.404,-0.005 -0.912,-0.033 -1.159,-0.064c-0.249,-0.034 -0.689,-0.118 -0.981,-0.188l-0.514,-0.123l-0.427,-0.187c-0.226,-0.103 -0.55,-0.294 -0.74,-0.435c-0.19,-0.144 -0.46,-0.383 -0.612,-0.542c-0.162,-0.17 -0.364,-0.442 -0.465,-0.617c-0.095,-0.172 -0.231,-0.468 -0.308,-0.67c-0.075,-0.206 -0.18,-0.558 -0.234,-0.794l-0.095,-0.407l-0.01,-1.934l0.103,-0.684c0.056,-0.357 0.172,-0.933 0.254,-1.285c0.087,-0.365 0.226,-0.858 0.318,-1.125c0.09,-0.265 0.227,-0.625 0.299,-0.802c0.077,-0.18 0.241,-0.524 0.365,-0.774c0.126,-0.251 0.349,-0.629 0.496,-0.847c0.146,-0.219 0.413,-0.543 0.606,-0.738c0.182,-0.18 0.46,-0.434 0.622,-0.565c0.162,-0.129 0.483,-0.345 0.73,-0.486c0.236,-0.134 0.647,-0.329 0.914,-0.439l0.473,-0.186l1.56,-0.305l1.29,-0.088l1.401,0.134l1.135,0.27l0.388,0.193c0.183,0.095 0.44,0.254 0.571,0.344c0.149,0.105 0.354,0.293 0.473,0.429c0.115,0.134 0.282,0.378 0.385,0.553l0.198,0.369l0.2,0.856l0.005,0.645Zm-3.198,1.037l0.097,-0.892l-0.105,-0.639l-0.062,-0.119c-0.028,-0.051 -0.131,-0.198 -0.229,-0.303l-0.149,-0.159l-0.596,-0.273l-0.881,-0.11l-0.596,0.038c-0.363,0.021 -0.72,0.067 -0.818,0.093c-0.097,0.026 -0.367,0.128 -0.598,0.239l-0.355,0.169l-0.753,0.748l-0.164,0.329c-0.098,0.198 -0.249,0.558 -0.337,0.797c-0.01,0.023 -0.018,0.046 -0.026,0.069c0.527,0.008 1.514,0.013 2.709,0.013l2.863,-0Z" style="fill:#f5f5f5;"/><path d="M625.858,51.814c0.401,0.117 0.445,0.117 0.484,0.117c0.035,0 0.359,-0.012 0.359,-0.464c0.003,-0.065 0.057,-0.406 0.149,-0.856c0.162,-0.802 0.162,-0.841 0.162,-0.874c-0,-0.267 -0.234,-0.352 -0.684,-0.486c-0.241,-0.071 -0.613,-0.161 -0.817,-0.184l-0.362,-0.047l-0.455,0.08c-0.236,0.044 -0.586,0.133 -0.794,0.208c-0.203,0.074 -0.524,0.237 -0.735,0.373c-0.21,0.136 -0.516,0.38 -0.694,0.555c-0.09,0.09 -0.21,0.221 -0.331,0.365c0.062,-0.347 0.121,-0.661 0.139,-0.728l0.159,-0.521l-3.14,-0l-0,0.467c-0.003,0.067 -0.057,0.473 -0.154,1.062c-0.088,0.529 -0.229,1.413 -0.316,1.966c-0.088,0.549 -0.242,1.508 -0.344,2.124c-0.103,0.617 -0.258,1.501 -0.345,1.964l-0.344,1.814c-0.103,0.535 -0.273,1.405 -0.378,1.938c-0.105,0.534 -0.231,1.161 -0.28,1.397c-0.095,0.463 -0.095,0.527 -0.095,0.604l-0,0.321l3.292,0l0.061,-0.863c0.021,-0.303 0.098,-0.93 0.165,-1.365c0.069,-0.454 0.213,-1.362 0.321,-2.014c0.105,-0.65 0.301,-1.732 0.432,-2.408c0.143,-0.712 0.287,-1.339 0.323,-1.447c0.034,-0.095 0.113,-0.333 0.108,-0.408c0.01,-0.041 0.08,-0.226 0.201,-0.486c0.113,-0.246 0.334,-0.64 0.483,-0.863l0.236,-0.368l0.727,-0.673l0.83,-0.398l1.319,0.008l0.318,0.09Z" style="fill:#f5f5f5;"/><path d="M636.515,51.271c0.044,-0.283 0.121,-0.745 0.172,-1.031c0.111,-0.619 0.095,-0.717 -0.023,-0.835c-0.074,-0.072 -0.105,-0.103 -0.735,-0.174c-0.285,-0.034 -1.066,-0.093 -1.732,-0.131l-1.238,-0.067l-1.732,0.136l-1.306,0.277l-0.406,0.162c-0.218,0.088 -0.568,0.257 -0.768,0.378c-0.18,0.11 -0.408,0.26 -0.516,0.331c-0.126,0.093 -0.45,0.391 -0.694,0.63l-0.519,0.519l-0.268,0.391c-0.154,0.228 -0.418,0.694 -0.588,1.038l-0.314,0.642l-0.228,0.658c-0.129,0.37 -0.309,0.971 -0.399,1.341l-0.169,0.702l-0.118,1.22l0.002,1.607l0.139,0.986l0.403,0.992l0.478,0.732l0.691,0.679l0.867,0.465l0.48,0.133c0.285,0.08 0.673,0.165 0.887,0.198c0.216,0.031 0.706,0.057 1.092,0.062l0.709,0.008l0.802,-0.095c0.437,-0.051 1.02,-0.139 1.295,-0.19c0.277,-0.054 0.727,-0.16 0.994,-0.239c0.553,-0.152 0.622,-0.214 0.648,-0.239c0.072,-0.057 0.141,-0.116 0.277,-0.818c0.064,-0.326 0.144,-0.763 0.18,-0.971c0.074,-0.452 0.059,-0.552 -0.051,-0.683l-0.108,-0.098l-0.134,0c-0.121,0 -0.223,0.062 -0.267,0.098c-0.049,0.028 -0.288,0.131 -0.617,0.254l-0.552,0.208l-1.645,0.329l-1.411,-0.049l-0.722,-0.252l-0.55,-0.483l-0.372,-0.681l-0.188,-0.922l0,-0.673l-0.002,-0.625l0.236,-1.58l0.131,-0.44c0.072,-0.243 0.157,-0.531 0.183,-0.634c0.025,-0.095 0.136,-0.373 0.239,-0.609c0.108,-0.249 0.303,-0.633 0.429,-0.856l0.195,-0.355l0.534,-0.568l0.558,-0.357l0.404,-0.125c0.213,-0.065 0.593,-0.152 0.829,-0.188l0.404,-0.067l1.331,0.062l1.578,0.311l0.331,0.123c0.391,0.147 0.391,0.147 0.46,0.147c0.293,0.002 0.319,-0.18 0.414,-0.784Z" style="fill:#f5f5f5;"/><path d="M646.768,49.451l0.866,0.458l0.555,0.555l0.385,0.866l-0.01,1.568l-0.172,0.96c-0.086,0.465 -0.228,1.246 -0.328,1.795l-0.021,0.115c-0.098,0.547 -0.252,1.421 -0.339,1.935c-0.085,0.516 -0.232,1.454 -0.322,2.086l-0.162,1.159l-0.079,2.058l-2.93,0l0.003,-0.712c-0,-0.151 0.018,-0.398 0.043,-0.652c-0.056,0.062 -0.11,0.118 -0.159,0.167c-0.185,0.187 -0.493,0.439 -0.699,0.575c-0.193,0.131 -0.514,0.314 -0.727,0.417l-0.344,0.162l-1.123,0.29l-1.789,0.056l-0.398,-0.061c-0.213,-0.031 -0.586,-0.118 -0.832,-0.185l-0.51,-0.157l-0.827,-0.522l-0.211,-0.246c-0.131,-0.152 -0.313,-0.422 -0.418,-0.612l-0.206,-0.403l-0.18,-0.953l-0.005,-1.208l0.195,-1.149l0.229,-0.557c0.123,-0.286 0.319,-0.661 0.45,-0.854c0.123,-0.185 0.401,-0.508 0.626,-0.735l0.376,-0.375l0.534,-0.341c0.555,-0.347 0.625,-0.347 0.704,-0.347c-0.008,-0.004 0.029,-0.021 0.082,-0.047c0.028,-0.013 0.06,-0.029 0.093,-0.046c0.175,-0.079 0.635,-0.234 1.056,-0.347l0.82,-0.216l4.24,-0.018l0.162,-0.794l-0.003,-0.416l0.003,-0.375l-0.303,-0.455l-0.609,-0.301l-1.044,-0.182l-1.619,0.074l-0.899,0.157c-0.491,0.082 -1.177,0.226 -1.498,0.311c-0.552,0.152 -0.65,0.152 -0.681,0.152l-0.144,-0l-0.105,-0.108c-0.134,-0.134 -0.121,-0.211 0.084,-1.002c0.098,-0.371 0.209,-0.833 0.25,-1.028l0.126,-0.612l1.285,-0.008l0.714,-0.087c0.424,-0.054 1.236,-0.123 1.812,-0.159l1.043,-0.064l1.662,0.123l1.298,0.295Zm-1.976,6.842l0.033,-0.195l-2.914,-0l-0.963,0.228l-0.694,0.342l-0.681,0.676l-0.175,0.364c-0.103,0.206 -0.231,0.537 -0.285,0.72l-0.092,0.316l0.046,1.079l0.102,0.193c0.065,0.121 0.18,0.301 0.25,0.38l0.113,0.136l0.226,0.116c0.136,0.072 0.391,0.167 0.545,0.206l0.285,0.072l0.909,-0.049l0.931,-0.293l0.192,-0.131c0.165,-0.111 0.265,-0.164 0.332,-0.19c0.067,-0.049 0.193,-0.165 0.326,-0.301l0.347,-0.344l0.208,-0.35c0.088,-0.149 0.167,-0.288 0.196,-0.347c0.02,-0.074 0.069,-0.218 0.192,-0.536c0.096,-0.24 0.247,-0.712 0.334,-1.033c0.085,-0.322 0.191,-0.792 0.237,-1.059Z" style="fill:#f5f5f5;"/><path d="M657.905,51.909l0.244,-0.018l0.272,-0.172l0.005,-0.373c0,-0.071 0.059,-0.439 0.144,-0.85l0.201,-0.971l-0.419,-0.167c-0.098,-0.037 -0.321,-0.111 -0.496,-0.165l-0.314,-0.1l-1.226,-0.013l-1.084,0.373l-0.689,0.413l-0.688,0.707c0.054,-0.283 0.118,-0.653 0.121,-0.756l0.007,-0.467l-2.641,-0l-0.321,0.015l-0,0.321c-0.006,0.057 -0.06,0.432 -0.126,0.869c-0.07,0.47 -0.214,1.37 -0.317,2.007c-0.102,0.632 -0.269,1.66 -0.375,2.282c-0.103,0.617 -0.257,1.501 -0.344,1.965c-0.087,0.463 -0.241,1.28 -0.342,1.812l-0.866,4.386l3.444,0l-0.003,-1.109l0.159,-1.036c0.088,-0.568 0.229,-1.47 0.319,-2.002c0.09,-0.532 0.198,-1.213 0.244,-1.503c0.046,-0.291 0.165,-0.915 0.267,-1.39c0.108,-0.501 0.232,-0.995 0.275,-1.121c0.011,-0.033 0.116,-0.321 0.113,-0.408c0.011,-0.044 0.093,-0.247 0.234,-0.545l0.226,-0.491l0.653,-0.866l0.334,-0.254c0.188,-0.141 0.499,-0.334 0.681,-0.422l0.29,-0.144l1.439,0.013l0.579,0.18Z" style="fill:#f5f5f5;"/><path d="M668.083,44.389l0.069,-0.679l3.289,0l0,0.322c0.003,0.077 0.003,0.108 -0.156,0.878c-0.083,0.394 -0.239,1.167 -0.345,1.714c-0.105,0.55 -0.264,1.39 -0.354,1.874l-0.709,3.849c-0.103,0.565 -0.26,1.439 -0.345,1.938c-0.084,0.498 -0.216,1.243 -0.29,1.66c-0.072,0.408 -0.201,1.194 -0.283,1.742c-0.082,0.547 -0.234,1.711 -0.336,2.587l-0.188,1.596l0.002,1.126l-3.129,-0l0.074,-0.777c0.01,-0.105 0.026,-0.233 0.041,-0.359l-0.002,0.005l-0.692,0.617l-0.439,0.239c-0.229,0.115 -0.558,0.246 -0.75,0.3c-0.196,0.057 -0.617,0.139 -0.91,0.188l-0.591,0.098l-0.622,-0.008c-0.352,-0.006 -0.799,-0.031 -1.017,-0.059c-0.219,-0.029 -0.586,-0.103 -0.828,-0.17c-0.234,-0.059 -0.599,-0.2 -0.827,-0.316l-0.375,-0.182l-0.612,-0.491l-0.576,-0.784l-0.131,-0.332c-0.074,-0.187 -0.177,-0.478 -0.226,-0.639l-0.082,-0.278l-0.154,-1.632l0.188,-1.999l0.2,-0.801c0.11,-0.432 0.272,-0.969 0.37,-1.221c0.09,-0.244 0.318,-0.758 0.516,-1.169l0.34,-0.707l0.316,-0.462c0.172,-0.245 0.483,-0.625 0.696,-0.854l0.378,-0.406l0.92,-0.688l1.238,-0.609l1.313,-0.342l1.426,-0.136l1.683,0.126l0.648,0.159c0.016,0.002 0.262,0.067 0.47,0.126l0.193,-1.169c0.103,-0.62 0.27,-1.658 0.375,-2.313c0.101,-0.647 0.203,-1.349 0.224,-1.562Zm-7.369,9.984c-0.083,0.18 -0.152,0.358 -0.167,0.422c-0.003,-0 0.069,-0.128 -0.17,0.625l-0.154,0.498l-0.19,1.388l-0.013,1.585l0.159,0.699l0.329,0.635l0.427,0.346l0.264,0.114c0.147,0.064 0.404,0.141 0.55,0.167l0.321,0.056l0.83,-0.054l0.912,-0.29l0.309,-0.203c0.175,-0.113 0.406,-0.293 0.511,-0.391c0.098,-0.087 0.265,-0.282 0.363,-0.423c0.097,-0.137 0.251,-0.412 0.339,-0.597c0.087,-0.18 0.198,-0.473 0.246,-0.64l0.214,-0.791c0.067,-0.252 0.193,-0.833 0.28,-1.29c0.017,-0.09 0.036,-0.194 0.058,-0.308c0.088,-0.468 0.206,-1.092 0.286,-1.537c0.103,-0.55 0.244,-1.336 0.316,-1.75c0.048,-0.282 0.1,-0.566 0.133,-0.749l0.016,-0.086c-0.141,-0.046 -0.411,-0.129 -0.665,-0.198l-0.553,-0.152l-1.968,0l-0.933,0.324l-0.218,0.141c-0.134,0.085 -0.378,0.278 -0.52,0.417c-0.146,0.139 -0.382,0.408 -0.516,0.588c-0.131,0.178 -0.324,0.486 -0.421,0.671c-0.106,0.203 -0.273,0.555 -0.375,0.783Z" style="fill:#f5f5f5;"/></g></g><g><path d="M1237.16,94.727c-0,7.121 -5.827,12.948 -12.948,12.948l-129.482,0c-7.121,0 -12.948,-5.827 -12.948,-12.948l0,-77.689c0,-7.121 5.827,-12.948 12.948,-12.948l129.482,-0c7.121,-0 12.948,5.827 12.948,12.948l-0,77.689Z" style="fill:#fff;"/><path d="M1224.21,4.09l-129.482,-0c-7.121,-0 -12.948,5.827 -12.948,12.948l0,77.689c0,7.121 5.827,12.948 12.948,12.948l129.482,0c7.121,0 12.948,-5.827 12.948,-12.948l-0,-77.689c-0,-7.121 -5.827,-12.948 -12.948,-12.948Zm-0,2.59c5.712,-0 10.358,4.645 10.358,10.358l0,77.689c0,5.713 -4.646,10.358 -10.358,10.358l-129.482,0c-5.713,0 -10.358,-4.645 -10.358,-10.358l-0,-77.689c-0,-5.713 4.645,-10.358 10.358,-10.358l129.482,-0Z" style="fill:#b3b3b3;fill-rule:nonzero;"/><g><rect x="1115.35" y="33.049" width="4.833" height="20.208"/><rect x="1121.76" y="33.049" width="1.583" height="20.208"/><rect x="1124.6" y="33.049" width="2.708" height="20.208"/><rect x="1129.89" y="33.049" width="1.583" height="20.208"/><rect x="1132.01" y="33.049" width="1.125" height="20.208"/><rect x="1111.51" y="33.049" width="1.583" height="45.667" style="fill-rule:nonzero;"/><rect x="1108.22" y="33.049" width="2.708" height="45.667" style="fill-rule:nonzero;"/><rect x="1141.26" y="33.049" width="4.833" height="20.208"/><rect x="1147.68" y="33.049" width="1.583" height="20.208"/><rect x="1150.51" y="33.049" width="2.708" height="20.208"/><rect x="1155.93" y="33.049" width="1.583" height="20.208"/><rect x="1158.05" y="33.049" width="1.125" height="20.208"/><rect x="1137.55" y="33.049" width="1.583" height="20.208"/><rect x="1134.3" y="33.049" width="2.708" height="20.208"/><rect x="1161.18" y="33.049" width="2.708" height="20.208"/><rect x="1166.47" y="33.049" width="1.583" height="20.208"/><rect x="1168.6" y="33.049" width="1.125" height="20.208"/><rect x="1174.14" y="33.049" width="1.583" height="20.208"/><rect x="1170.89" y="33.049" width="2.708" height="20.208"/><rect x="1177.72" y="33.049" width="1.583" height="20.208"/><rect x="1179.85" y="33.049" width="1.125" height="20.208"/><rect x="1185.39" y="33.049" width="1.583" height="20.208"/><rect x="1181.97" y="33.049" width="2.708" height="20.208"/><rect x="1188.26" y="33.049" width="4.833" height="20.208"/><rect x="1194.64" y="33.049" width="1.583" height="20.208"/><rect x="1197.51" y="33.049" width="2.708" height="20.208"/><rect x="1202.76" y="33.049" width="1.583" height="20.208"/><rect x="1204.89" y="33.049" width="1.125" height="20.208"/><rect x="1208.01" y="33.049" width="2.708" height="45.667" style="fill-rule:nonzero;"/><path d="M1115.51,77.882l-0,-23.208l8.666,0c1.417,0 2.834,0.292 4.292,0.708c1,0.417 2,1.125 2.583,2.125c0.584,1 0.875,2 0.875,3.125c0,1 -0.291,2 -0.875,2.834c-0.583,0.833 -1.416,1.708 -2.416,2.125c1.291,0.416 2.416,1.125 3.291,2.125c0.709,1 1.125,2.291 1.125,3.541c0,1 -0.291,2 -0.708,3c-0.292,0.875 -1,1.584 -1.708,2.125c-0.875,0.417 -1.709,0.875 -2.584,1.125c-1.125,0.292 -2.416,0.417 -3.708,0.417l-8.833,-0.125l-0,0.083Zm3.125,-13.541l5,-0c1,-0 1.833,-0.125 2.833,-0.292c1.417,-0.292 2.417,-1.708 2.292,-3.125c-0,-0.708 -0.125,-1.417 -0.584,-2c-0.291,-0.583 -0.875,-1 -1.583,-1.125c-1.125,-0.125 -2.417,-0.292 -3.542,-0.292l-4.708,0l0.292,6.834Zm-0,10.833l5.833,0c0.708,0 1.417,0 2.125,-0.125c0.583,-0.125 1.125,-0.292 1.708,-0.583c0.417,-0.292 0.875,-0.709 1.125,-1.292c0.25,-0.583 0.417,-1.292 0.417,-2c-0,-0.875 -0.292,-1.583 -0.708,-2.292c-0.417,-0.708 -1,-1.125 -1.834,-1.291c-1.125,-0.292 -2.291,-0.417 -3.416,-0.417l-5.417,0l0.125,7.958l0.042,0.042Z" style="fill-rule:nonzero;"/><path d="M1135.85,69.466c-0,-3.125 0.875,-5.417 2.542,-6.834c1.416,-1.291 3.291,-1.833 5.25,-1.833c2.125,-0.125 4.125,0.708 5.708,2.292c1.583,1.708 2.292,4 2.125,6.25c0.125,1.708 -0.292,3.541 -1,5.125c-0.708,1.291 -1.583,2.125 -2.833,2.833c-1.25,0.708 -2.542,1 -4,1c-2.125,0.125 -4.292,-0.708 -5.709,-2.292c-1.583,-1.833 -2.291,-4.125 -2.125,-6.541l0.042,-0Zm2.833,-0c-0.125,1.708 0.417,3.416 1.417,4.833c0.875,1 2.125,1.583 3.542,1.583c1.416,0 2.708,-0.583 3.541,-1.583c1.125,-1.417 1.584,-3.125 1.417,-4.833c0.125,-1.709 -0.292,-3.417 -1.417,-4.709c-0.875,-1 -2.125,-1.583 -3.541,-1.583c-1.417,0 -2.709,0.583 -3.542,1.583c-1,1.292 -1.583,3 -1.417,4.709Z" style="fill-rule:nonzero;"/><rect x="1154.8" y="54.674" width="2.833" height="23.208" style="fill-rule:nonzero;"/><path d="M1173.6,72.466l3,0.416c-0.417,1.584 -1.292,3 -2.542,4c-1.416,1 -3.125,1.584 -4.833,1.417c-2.125,0.125 -4.292,-0.708 -5.833,-2.292c-1.584,-1.833 -2.292,-4.125 -2.125,-6.416c-0.125,-2.417 0.583,-4.709 2.125,-6.542c1.416,-1.583 3.541,-2.417 5.708,-2.292c2,-0.125 4.125,0.709 5.417,2.292c1.583,1.833 2.291,4.125 2.125,6.417l-0,0.708l-12.542,0c-0,1.583 0.583,3.125 1.583,4.292c1,1 2.292,1.416 3.542,1.416c1,0 2,-0.291 2.708,-0.875c0.834,-0.708 1.417,-1.583 1.709,-2.541l-0.042,-0Zm-9.417,-4.542l9.375,0c0,-1.125 -0.416,-2.292 -1.125,-3.125c-0.833,-1.125 -2.125,-1.708 -3.541,-1.708c-1.292,-0 -2.417,0.416 -3.292,1.291c-0.833,1 -1.292,2.292 -1.417,3.542Z" style="fill-rule:nonzero;"/><path d="M1186.26,75.299l0.416,2.542c-0.708,0.125 -1.416,0.291 -2.125,0.291c-0.833,0 -1.708,-0.125 -2.416,-0.416c-0.584,-0.292 -1,-0.709 -1.125,-1.292c-0.292,-1.125 -0.417,-2.292 -0.292,-3.417l-0,-9.833l-2.125,0l-0,-2.292l2.125,0l-0,-4.125l2.833,-1.708l0,5.833l2.834,0l-0,2.292l-2.834,0l0,9.833c0,0.584 0,1 0.125,1.584c0.125,0.291 0.292,0.416 0.417,0.583c0.292,0.125 0.708,0.125 1,0.125c0.417,0.125 0.708,0.125 1.125,0l0.042,0Z" style="fill-rule:nonzero;"/><path d="M1188.1,69.466c-0,-3.125 0.833,-5.417 2.542,-6.834c3.291,-2.541 7.958,-2.416 10.958,0.417c1.583,1.708 2.292,4 2.125,6.25c0.125,1.708 -0.292,3.542 -1,5.125c-0.708,1.292 -1.583,2.125 -2.833,2.833c-1.25,0.709 -2.542,1 -4,1c-2.125,0.125 -4.292,-0.708 -5.709,-2.291c-1.583,-1.834 -2.291,-4.125 -2.125,-6.542l0.042,0.042Zm2.833,-0c-0.125,1.708 0.417,3.416 1.417,4.833c0.833,1 2.125,1.583 3.542,1.583c1.416,0 2.708,-0.583 3.541,-1.583c1.125,-1.417 1.584,-3.125 1.417,-4.833c0.125,-1.709 -0.292,-3.417 -1.417,-4.709c-0.833,-1 -2.125,-1.583 -3.541,-1.583c-1.417,0 -2.709,0.583 -3.542,1.583c-1.125,1.292 -1.583,3 -1.417,4.709Z" style="fill-rule:nonzero;"/></g></g><path d="M1057.25,94.727c-0,7.121 -5.827,12.948 -12.949,12.948l-129.481,0c-7.121,0 -12.948,-5.827 -12.948,-12.948l-0,-77.689c-0,-7.121 5.827,-12.948 12.948,-12.948l129.481,-0c7.122,-0 12.949,5.827 12.949,12.948l-0,77.689Z" style="fill:#fff;"/><path d="M1044.3,4.09l-129.481,-0c-7.121,-0 -12.948,5.827 -12.948,12.948l-0,77.689c-0,7.121 5.827,12.948 12.948,12.948l129.481,0c7.122,0 12.949,-5.827 12.949,-12.948l-0,-77.689c-0,-7.121 -5.827,-12.948 -12.949,-12.948Zm0,2.59c5.713,-0 10.359,4.645 10.359,10.358l-0,77.689c-0,5.713 -4.646,10.358 -10.359,10.358l-129.481,0c-5.713,0 -10.359,-4.645 -10.359,-10.358l0,-77.689c0,-5.713 4.646,-10.358 10.359,-10.358l129.481,-0Z" style="fill:#b3b3b3;fill-rule:nonzero;"/><g><path d="M954.964,39.076l0,33.613c-9.25,-3.257 -14.201,-13.549 -10.748,-22.865c1.693,-4.951 5.797,-9.055 10.748,-10.748Z" style="fill-rule:nonzero;"/><path d="M978.676,55.882c0,7.557 -4.755,14.202 -11.856,16.807l0,-33.613c7.101,2.605 11.856,9.25 11.856,16.806Z" style="fill-rule:nonzero;"/><path d="M998.284,26.177l-37.457,0c-16.351,0 -29.705,13.355 -29.705,29.705c0,16.351 13.354,29.706 29.705,29.706l37.457,-0c16.351,-0 29.705,-13.355 29.705,-29.706c0,-16.35 -13.354,-29.705 -29.705,-29.705Zm-37.457,58.564c-16.155,-0 -29.054,-12.899 -29.054,-29.054c0,-16.155 12.899,-29.054 29.054,-29.054c16.156,0 29.054,12.899 29.054,29.054c-0,16.155 -12.898,29.054 -29.054,29.054Z" style="fill:#0b7bbe;fill-rule:nonzero;"/><path d="M954.964,39.076l0,33.613c-9.25,-3.257 -14.201,-13.549 -10.748,-22.865c1.693,-4.951 5.797,-9.055 10.748,-10.748Z" style="fill-rule:nonzero;"/><path d="M978.676,55.882c0,7.557 -4.755,14.202 -11.856,16.807l0,-33.613c7.101,2.605 11.856,9.25 11.856,16.806Z" style="fill-rule:nonzero;"/><path d="M954.964,72.689c-7.1,-2.605 -11.856,-9.25 -11.856,-16.807c0,-7.556 4.756,-14.201 11.856,-16.806l0,33.613Z" style="fill:#0b7bbe;fill-rule:nonzero;"/><path d="M978.676,55.882c0,7.557 -4.755,14.202 -11.856,16.807l0,-33.613c7.101,2.605 11.856,9.25 11.856,16.806Z" style="fill:#0b7bbe;fill-rule:nonzero;"/></g><path d="M1417.08,94.727c-0,7.121 -5.827,12.948 -12.948,12.948l-129.482,0c-7.121,0 -12.948,-5.827 -12.948,-12.948l0,-77.689c0,-7.121 5.827,-12.948 12.948,-12.948l129.482,-0c7.121,-0 12.948,5.827 12.948,12.948l-0,77.689Z" style="fill:#fff;"/><path d="M1404.13,4.09l-129.482,-0c-7.121,-0 -12.948,5.827 -12.948,12.948l0,77.689c0,7.121 5.827,12.948 12.948,12.948l129.482,0c7.121,0 12.948,-5.827 12.948,-12.948l-0,-77.689c-0,-7.121 -5.827,-12.948 -12.948,-12.948Zm-0,2.59c5.712,-0 10.358,4.645 10.358,10.358l0,77.689c0,5.713 -4.646,10.358 -10.358,10.358l-129.482,0c-5.712,0 -10.358,-4.645 -10.358,-10.358l-0,-77.689c-0,-5.713 4.646,-10.358 10.358,-10.358l129.482,-0Z" style="fill:#b3b3b3;fill-rule:nonzero;"/><g><g id="g972"><g id="path974"><path d="M1326.21,75.856c-0.541,0 -0.958,-0.417 -0.958,-0.958l0,-24.459c0,-5.041 4.083,-9.125 9.125,-9.125l7.208,0c5.042,0 9.125,4.084 9.125,9.125l0,5.167c0,5.042 -4.083,9.125 -9.125,9.125l-10.208,0c-0.542,0 -0.958,-0.417 -0.958,-0.958c-0,-0.542 0.416,-0.959 0.958,-0.959l10.208,0c3.959,0 7.209,-3.25 7.209,-7.208l-0,-5.167c-0,-3.958 -3.125,-7.083 -7.084,-7.208l-7.208,0c-3.958,0 -7.208,3.25 -7.208,7.208l-0,24.459c-0,0.541 -0.542,0.958 -1.084,0.958Z" style="fill-rule:nonzero;"/></g></g><g id="g976"><g id="path978"><path d="M1358.17,64.856c-0.542,0 -0.959,-0.417 -0.959,-0.958l0,-18.209c0,-1.208 -1.083,-2.291 -2.291,-2.291l-3.125,-0c-0.542,-0 -0.959,-0.417 -0.959,-0.959c0,-0.541 0.417,-0.958 0.959,-0.958l3.125,0c2.458,0 4.333,1.917 4.333,4.333l0,18.209c-0.125,0.416 -0.542,0.833 -1.083,0.833Z" style="fill-rule:nonzero;"/></g></g><g id="g980"><g id="path982"><path d="M1357.5,39.439l-1.375,-1.375c-0.417,-0.291 -0.417,-0.666 -0.125,-1.083l1.5,-1.5c0.292,-0.292 0.833,-0.417 1.083,-0.125l1.5,1.5c0.417,0.292 0.417,0.667 0.125,1.083l-1.5,1.5c-0.291,0.292 -0.762,0.446 -1.208,0c1030.03,200.667 1030.11,200.75 0,0" style="fill:#3eb6aa;fill-rule:nonzero;"/></g></g><g id="g984"><g id="path986"><path d="M1380.46,53.023c-0.958,-0 -1.75,-0.417 -2.458,-0.959l-7.208,-7.208c-0.959,-0.958 -2.167,-1.5 -3.542,-1.5l-3.125,0c-0.542,0 -0.958,-0.417 -0.958,-0.958c-0,-0.542 0.416,-0.959 0.958,-0.959l3.125,0c1.917,0 3.667,0.667 4.875,2.042l7.208,7.208c0.542,0.542 1.375,0.542 1.917,0l7.208,-7.208c1.375,-1.375 3,-2.042 4.875,-2.042l2.584,0c0.541,0 0.958,0.417 0.958,0.959c0,0.541 -0.417,0.958 -0.958,0.958l-2.584,0c-1.375,0 -2.583,0.542 -3.541,1.5l-7.209,7.208c-0.541,0.667 -1.375,0.959 -2.166,0.959l0.041,-0Z" style="fill-rule:nonzero;"/></g></g><g id="g988"><g id="path990"><path d="M1367.33,64.731l-3.166,0c-0.542,0 -0.959,-0.417 -0.959,-0.958c0,-0.542 0.417,-0.959 0.959,-0.959l3.125,0c1.375,0 2.583,-0.541 3.541,-1.5l7.209,-7.208c0.666,-0.667 1.5,-0.958 2.458,-0.958c0.958,-0 1.75,0.416 2.458,0.958l7.209,7.208c0.958,0.959 2.166,1.5 3.541,1.5l2.584,0c0.541,0 0.958,0.417 0.958,0.959c0,0.541 -0.417,0.958 -0.958,0.958l-2.584,0c-1.916,0 -3.666,-0.667 -4.875,-2.042l-7.208,-7.208c-0.542,-0.542 -1.375,-0.542 -1.917,0l-7.208,7.208c-1.375,1.375 -3.25,2.042 -5.167,2.042Z" style="fill-rule:nonzero;"/></g></g><g id="g992"><g id="path994"><path d="M1307.71,68.398c-1.5,-0 -3,-0.667 -4.083,-1.75l-6,-6c-0.417,-0.417 -1.083,-0.417 -1.5,-0l-6,6c-1.083,1.083 -2.583,1.75 -4.083,1.75l-1.209,-0l7.459,7.458c2.458,2.292 6.125,2.292 8.583,0l7.625,-7.625l-0.833,0l-0,0.125l0.041,0.042Z" style="fill:#3eb6aa;fill-rule:nonzero;"/></g></g><g id="g996"><g id="path998"><path d="M1286.08,47.439c1.5,0 3,0.667 4.084,1.75l6,6c0.416,0.417 1.083,0.417 1.5,0l6,-6c1.083,-1.083 2.583,-1.75 4.083,-1.75l0.667,0l-7.625,-7.625c-2.459,-2.291 -6.125,-2.291 -8.584,0l-7.458,7.459l1.375,0.125l-0.042,0.041Z" style="fill:#3eb6aa;fill-rule:nonzero;"/></g></g><g id="g1000"><g id="path1002"><path d="M1314.79,53.564l-4.625,-4.625l-2.292,0c-1.083,0 -2.167,0.417 -2.875,1.209l-6,6c-0.542,0.541 -1.208,0.833 -2.042,0.833c-0.833,0 -1.5,-0.292 -2.041,-0.833l-6,-6c-0.667,-0.834 -1.75,-1.209 -2.875,-1.209l-2.875,0l-4.625,4.625c-2.292,2.459 -2.292,6.125 -0,8.584l4.625,4.625l2.875,-0c1.083,-0 2.166,-0.417 2.875,-1.209l6,-6c1.083,-1.083 3,-1.083 4.083,0l6,6c0.667,0.834 1.75,1.209 2.875,1.209l2.292,-0l4.625,-4.625c2.291,-2.459 2.291,-6.125 -0,-8.584" style="fill:#3eb6aa;fill-rule:nonzero;"/></g></g><g id="g1004"><g id="path1006"><path d="M1332.46,72.731c-0.291,0 -0.666,0.125 -1.083,0.125l0,1.5c0.292,0.125 0.542,0.125 0.833,0.125c0.667,0 1.084,-0.292 1.084,-0.958c-0,-0.417 -0.292,-0.834 -0.542,-0.834l-0.292,0m-1.5,2.75l0,-3.041l0.292,-0l0,0.125c0.417,-0.125 0.833,-0.125 1.208,-0.125c0.292,-0 0.542,-0 0.834,0.291c0.291,0.292 0.291,0.542 0.291,0.959c0,0.416 -0.125,0.833 -0.541,0.958c-0.292,0.125 -0.542,0.125 -0.834,0.125c-0.291,0 -0.666,-0.125 -0.958,-0.125l0,0.833l-0.292,0Z" style="fill-rule:nonzero;"/></g></g><g id="g1008"><g id="path1010"><path d="M1335.46,72.856c-0.666,0 -1.083,0.292 -1.083,0.958c0,0.667 0.292,0.959 1.083,0.959c0.792,-0 1.084,-0.292 1.084,-0.959c-0,-0.666 -0.292,-0.958 -1.084,-0.958m0.959,1.75c-0.292,0.125 -0.667,0.292 -0.959,0.292c-0.416,-0 -0.666,-0 -0.958,-0.292c-0.292,-0.292 -0.417,-0.542 -0.417,-0.958c0,-0.417 0.125,-0.667 0.417,-0.959c0.292,-0.125 0.667,-0.291 0.958,-0.291c0.417,-0 0.667,-0 0.959,0.291c0.541,0.542 0.541,1.375 -0,1.917" style="fill-rule:nonzero;"/></g></g><g id="g1012"><g id="path1014"><path d="M1339.96,74.773l-0.833,-1.75l-0.833,1.75l-0.292,-0l-0.958,-2.167l0.291,0l0.667,1.75l0.833,-1.75l0.292,0l0.833,1.75l0.667,-1.75l0.292,0l-0.959,2.167Z" style="fill-rule:nonzero;"/></g></g><g id="g1016"><g id="path1018"><path d="M1342.79,72.731c-0.667,0 -0.959,0.292 -0.959,0.833l1.917,0c-0.125,-0.541 -0.292,-0.833 -0.958,-0.833m-0.125,2.042c-0.542,0.125 -1.084,-0.292 -1.209,-0.834l0,-0.416c0,-0.417 0.125,-0.667 0.417,-0.959c0.292,-0.125 0.542,-0.291 0.833,-0.291c0.292,-0 0.542,-0 0.834,0.291c0.291,0.292 0.416,0.542 0.416,0.959l-2.166,-0c-0,0.416 0.125,0.833 0.958,0.833c0.417,0 0.667,0 1.083,-0.125l0,0.292c-0.416,0.291 -0.833,0.416 -1.083,0.291" style="fill-rule:nonzero;"/></g></g><g id="g1020"><g id="path1022"><path d="M1344.58,74.773l0,-2.167l0.292,0l0,0.125c0.417,-0.125 0.667,-0.125 1.083,-0.125l0,0.292c-0.291,-0 -0.666,-0 -0.958,0.125l0,1.75l-0.417,-0Z" style="fill-rule:nonzero;"/></g></g><g id="g1024"><g id="path1026"><path d="M1347.42,72.731c-0.667,0 -0.959,0.292 -0.959,0.833l1.917,0c0,-0.541 -0.292,-0.833 -0.958,-0.833m-0,2.042c-0.542,0.125 -1.084,-0.292 -1.209,-0.834l0,-0.416c0,-0.417 0.125,-0.667 0.417,-0.959c0.292,-0.125 0.542,-0.291 0.833,-0.291c0.292,-0 0.542,-0 0.834,0.291c0.291,0.292 0.416,0.542 0.416,0.959l-2.166,-0c-0,0.416 0.125,0.833 0.958,0.833c0.417,0 0.667,0 1.083,-0.125l0,0.292c-0.416,0.291 -0.833,0.416 -1.083,0.291" style="fill-rule:nonzero;"/></g></g><g id="g1028"><g id="path1030"><path d="M1351.38,72.856c-0.292,-0.125 -0.542,-0.125 -0.833,-0.125c-0.667,0 -1.084,0.292 -1.084,0.958c0,0.667 0.292,0.959 0.834,0.959c0.291,-0 0.666,-0.125 1.083,-0.125l0,-1.667Zm0,1.917l-1.208,-0c-0.292,-0 -0.542,-0 -0.834,-0.292c-0.291,-0.292 -0.291,-0.542 -0.291,-0.958c-0,-0.417 0.125,-0.834 0.541,-0.959c0.292,-0.125 0.542,-0.125 0.834,-0.125c0.291,0 0.666,0 0.958,0.125l0,-0.958l0.292,0l-0,3.125l-0.292,0l0,0.042Z" style="fill-rule:nonzero;"/></g></g><g id="g1032"><g id="path1034"><path d="M1355.46,72.731c-0.291,0 -0.666,0.125 -1.083,0.125l0,1.5c0.292,0.125 0.542,0.125 0.833,0.125c0.667,0 1.084,-0.292 1.084,-0.958c-0,-0.417 -0.292,-0.834 -0.542,-0.834l-0.292,0m0.542,1.917c-0.292,0.125 -0.542,0.125 -0.833,0.125c-0.292,0 -0.667,0 -0.959,-0.125l0,0.125l-0.125,0l0,-3.125l0.292,0l0,1.083c0.417,-0.125 0.667,-0.125 1.083,-0.125c0.292,0 0.542,0 0.834,0.292c0.291,0.292 0.291,0.542 0.291,0.958c0,0.417 -0.291,0.667 -0.541,0.834" style="fill-rule:nonzero;"/></g></g><g id="g1036"><g id="path1038"><path d="M1356.79,75.606l-0,-0.292l0.291,0c0.292,0 0.542,-0.125 0.667,-0.416l0.125,-0.125l-1.083,-2.167l0.291,0l0.959,1.917l0.958,-1.917l0.292,0l-1.209,2.458c-0.125,0.417 -0.541,0.542 -0.958,0.542l-0.292,0" style="fill-rule:nonzero;"/></g></g><g id="g1040"><g id="path1042"><path d="M1362.67,73.564l-0.834,0l0,0.834l0.834,-0c0.541,-0 0.833,-0 0.833,-0.417c0,-0.417 -0.292,-0.417 -0.833,-0.417m-0.125,-1.208l-0.667,0l0,0.833l0.667,0c0.541,0 0.833,-0.125 0.833,-0.416c0,-0.417 -0.292,-0.417 -0.833,-0.417m1.208,2.167c-0.417,0.125 -0.958,0.291 -1.375,0.291l-1.208,0l-0,-2.875l1.208,0c0.417,0 0.833,0 1.208,0.125c0.292,0.125 0.292,0.292 0.292,0.542c0,0.25 -0.125,0.542 -0.417,0.667c0.417,0.125 0.667,0.291 0.667,0.666c0,0.375 -0.125,0.417 -0.417,0.542" style="fill-rule:nonzero;"/></g></g><g id="g1044"><g id="path1046"><path d="M1366.75,73.814l-0.833,0c-0.417,0 -0.542,0.125 -0.542,0.292c0,0.167 0.125,0.292 0.417,0.292c0.291,-0 0.666,-0 0.958,-0.125l0,-0.459Zm0.125,0.959l-1.208,-0c-0.292,-0 -0.542,-0 -0.667,-0.125c-0.125,-0.125 -0.292,-0.292 -0.292,-0.542c0,-0.25 0.125,-0.417 0.417,-0.542c0.292,-0.125 0.542,-0.125 0.833,-0.125l0.834,0c-0,-0.291 -0.292,-0.416 -0.834,-0.416l-0.833,-0l0,-0.417l0.958,0c0.417,0 0.834,0 0.959,0.125c0.125,0.125 0.291,0.417 0.291,0.667l0,1.208l-0.416,0l-0,0.125l-0.042,0.042Z" style="fill-rule:nonzero;"/></g></g><g id="g1048"><g id="path1050"><path d="M1370.12,74.939l0,-1.375c0,-0.416 -0.125,-0.541 -0.542,-0.541c-0.291,-0 -0.541,-0 -0.833,0.125l0,1.625l-0.542,-0l0,-2.167l0.542,0l0,0.125c0.417,-0.125 0.667,-0.125 1.083,-0.125c0.292,0 0.542,0 0.667,0.292c0.125,0.125 0.292,0.416 0.292,0.666l-0,1.375l-0.667,0Z" style="fill-rule:nonzero;"/></g></g><g id="g1052"><g id="path1054"><path d="M1372.46,74.773c-0.291,-0 -0.541,-0 -0.833,-0.292c-0.542,-0.542 -0.542,-1.375 0,-1.917c0.292,-0.125 0.667,-0.291 0.958,-0.291l0.834,-0l-0,0.416l-0.667,0c-0.542,0 -0.833,0.125 -0.833,0.667c-0,0.542 0.125,0.667 0.666,0.667c0.292,-0 0.667,-0 0.959,-0.125l-0,0.416c-0.292,0.417 -0.667,0.542 -1.084,0.417" style="fill-rule:nonzero;"/></g></g><g id="g1056"><g id="path1058"><path d="M1375.17,73.023c-0.542,-0 -0.834,0.125 -0.834,0.666c0,0.542 0.292,0.667 0.834,0.667c0.541,0 0.833,-0.125 0.833,-0.667c0,-0.541 -0.292,-0.666 -0.833,-0.666m1.083,1.625c-0.292,0.125 -0.667,0.291 -1.083,0.291c-0.417,0 -0.834,0 -1.084,-0.291c-0.291,-0.292 -0.416,-0.542 -0.416,-0.959c-0,-0.416 0.125,-0.666 0.416,-0.958c0.292,-0.125 0.667,-0.292 1.084,-0.292c0.416,0 0.833,0 1.083,0.292c0.292,0.292 0.417,0.542 0.417,0.958c-0,0.417 -0.125,0.667 -0.417,0.959" style="fill-rule:nonzero;"/></g></g><g id="g1060"><g id="path1062"><path d="M1380.08,74.773c-0.416,-0 -0.833,-0 -1.083,-0.292c-0.417,-0.292 -0.417,-0.667 -0.417,-1.208c0,-0.417 0.125,-0.959 0.542,-1.209c0.417,-0.291 0.833,-0.291 1.208,-0.291l0.959,-0l-0,0.541l-0.959,0c-0.833,0 -1.208,0.292 -1.208,0.959c0,0.666 0.292,0.958 0.958,0.958c0.417,0 0.834,-0.125 1.375,-0.125l0,0.542c-0.416,-0 -0.833,0.125 -1.375,0.125" style="fill-rule:nonzero;"/></g></g><g id="g1064"><g id="path1066"><path d="M1383.33,73.023c-0.541,-0 -0.666,0.125 -0.666,0.541l1.5,0c-0.125,-0.416 -0.417,-0.666 -0.834,-0.541m-0.125,1.916c-0.416,0 -0.666,0 -0.958,-0.291c-0.292,-0.292 -0.417,-0.542 -0.417,-0.959c0,-0.416 0.125,-0.666 0.417,-0.958c0.292,-0.125 0.667,-0.292 0.958,-0.292c0.417,0 0.667,0 0.959,0.292c0.291,0.292 0.541,0.667 0.416,1.083l-2.041,0c-0,0.292 0.125,0.542 0.833,0.542c0.417,0 0.667,0 1.083,-0.125l0,0.417c-0.416,0.125 -0.833,0.291 -1.208,0.291" style="fill-rule:nonzero;"/></g></g><g id="g1068"><g id="path1070"><path d="M1387.25,74.939l0,-1.375c0,-0.416 -0.125,-0.541 -0.542,-0.541c-0.291,-0 -0.541,-0 -0.833,0.125l0,1.625l-0.542,-0l0,-2.167l0.542,0l0,0.125c0.417,-0.125 0.667,-0.125 1.083,-0.125c0.292,0 0.542,0 0.667,0.292c0.125,0.125 0.292,0.416 0.292,0.666l-0,1.375l-0.667,0Z" style="fill-rule:nonzero;"/></g></g><g id="g1072"><g id="path1074"><path d="M1389.58,74.773c-0.291,-0 -0.541,-0.125 -0.666,-0.292c-0.125,-0.167 -0.125,-0.417 -0.125,-0.667l-0,-0.833l-0.417,0l0,-0.417l0.417,0l-0,-0.666l0.541,-0l0,0.666l0.834,0l-0,0.417l-0.834,0l0,1.083c0,0 0.292,0.125 0.417,0.125l0.417,0l-0,0.417c-0,0 -0.292,0.125 -0.542,0.125" style="fill-rule:nonzero;"/></g></g><g id="g1076"><g id="path1078"><path d="M1390.79,74.773l-0,-2.167l0.541,0l0,0.125c0.417,-0.125 0.667,-0.125 1.084,-0.125l0.125,0l-0,0.542l-0.292,-0c-0.292,-0 -0.542,-0 -0.833,0.125l-0,1.625l-0.667,-0l0,-0.125l0.042,-0Z" style="fill-rule:nonzero;"/></g></g><g id="g1080"><g id="path1082"><path d="M1394.62,73.814l-0.833,0c-0.417,0 -0.542,0.125 -0.542,0.292c0,0.167 0.125,0.292 0.417,0.292c0.291,-0 0.666,-0 0.958,-0.125l0,-0.459Zm0.125,0.959l-1.208,-0c-0.292,-0 -0.542,-0 -0.667,-0.125c-0.125,-0.125 -0.292,-0.292 -0.292,-0.542c0,-0.25 0.125,-0.417 0.417,-0.542c0.292,-0.125 0.542,-0.125 0.833,-0.125l0.834,0c-0,-0.291 -0.292,-0.416 -0.834,-0.416l-0.833,-0l0,-0.417l0.958,0c0.417,0 0.834,0 0.959,0.125c0.125,0.125 0.291,0.417 0.291,0.667l0,1.208l-0.416,0l-0,0.125l-0.042,0.042Z" style="fill-rule:nonzero;"/></g></g><g id="path1084"><rect x="1395.96" y="71.773" width="0.542" height="3.125" style="fill-rule:nonzero;"/></g></g><path d="M157.669,94.666c-0,7.121 -5.827,12.948 -12.948,12.948l-129.482,0c-7.121,0 -12.948,-5.827 -12.948,-12.948l0,-77.689c0,-7.121 5.827,-12.948 12.948,-12.948l129.482,-0c7.121,-0 12.948,5.827 12.948,12.948l-0,77.689Z" style="fill:#fff;"/><path d="M144.721,4.029l-129.482,-0c-7.121,-0 -12.948,5.827 -12.948,12.948l0,77.689c0,7.121 5.827,12.948 12.948,12.948l129.482,0c7.121,0 12.948,-5.827 12.948,-12.948l-0,-77.689c-0,-7.121 -5.827,-12.948 -12.948,-12.948Zm-0,2.59c5.712,-0 10.358,4.645 10.358,10.358l0,77.689c0,5.713 -4.646,10.359 -10.358,10.359l-129.482,-0c-5.712,-0 -10.358,-4.646 -10.358,-10.359l-0,-77.689c-0,-5.713 4.646,-10.358 10.358,-10.358l129.482,-0Z" style="fill:#b3b3b3;fill-rule:nonzero;"/><path d="M92.511,77.64c11.512,0 20.845,-9.332 20.845,-20.845c-0,-11.512 -9.333,-20.845 -20.845,-20.845c-11.512,-0 -20.845,9.333 -20.845,20.845c-0,11.513 9.333,20.845 20.845,20.845Z" style="fill:#f79e1b;"/><path d="M66.961,77.592c11.512,-0 20.845,-9.333 20.845,-20.846c-0,-11.512 -9.333,-20.845 -20.845,-20.845c-11.513,0 -20.845,9.333 -20.845,20.845c-0,11.513 9.332,20.846 20.845,20.846Z" style="fill:#eb001b;"/><path d="M71.666,56.747c-0.015,6.7 3.13,12.668 8.031,16.493c4.921,-3.803 8.094,-9.754 8.111,-16.452c0.015,-6.701 -3.129,-12.669 -8.031,-16.494c-4.923,3.799 -8.097,9.752 -8.111,16.453Z" style="fill:#ff5f00;"/><path d="M517.499,94.727c0,7.121 -5.827,12.948 -12.948,12.948l-129.481,0c-7.122,0 -12.949,-5.827 -12.949,-12.948l0,-77.689c0,-7.121 5.827,-12.948 12.949,-12.948l129.481,-0c7.121,-0 12.948,5.827 12.948,12.948l0,77.689Z" style="fill:#fff;"/><path d="M504.551,4.09l-129.481,-0c-7.122,-0 -12.949,5.827 -12.949,12.948l0,77.689c0,7.121 5.827,12.948 12.949,12.948l129.481,0c7.121,0 12.948,-5.827 12.948,-12.948l0,-77.689c0,-7.121 -5.827,-12.948 -12.948,-12.948Zm-0,2.59c5.713,-0 10.359,4.645 10.359,10.358l-0,77.689c-0,5.713 -4.646,10.358 -10.359,10.358l-129.481,0c-5.713,0 -10.359,-4.645 -10.359,-10.358l0,-77.689c0,-5.713 4.646,-10.358 10.359,-10.358l129.481,-0Z" style="fill:#b3b3b3;fill-rule:nonzero;"/><g><path d="M426.887,53.363l-12.314,5.364l0,-0.609c0,-4.024 3.129,-7.112 7.112,-7.112c1.951,-0 3.861,0.894 5.202,2.357Z" style="fill-rule:nonzero;"/><path d="M439.81,15.771c-22.148,0 -40.111,17.963 -40.111,40.111c0,22.149 17.963,40.112 40.111,40.112c22.149,-0 40.112,-17.963 40.112,-40.112c-0,-22.148 -17.963,-40.111 -40.112,-40.111Zm-24.058,52.019l2.966,-4.47c2.967,1.788 5.812,1.503 8.778,-0.895l3.699,3.699c-4.146,4.145 -10.567,4.917 -15.443,1.625l-0,0.041Zm13.817,-11.013l-5.039,2.235l-12.192,5.364c-1.341,-2.072 -2.073,-4.47 -2.073,-6.827c0,-6.828 5.487,-12.314 12.314,-12.314c5.812,-0 10.688,4.023 12.029,9.51l-5.039,2.072l0,-0.04Zm13.371,12.313l-4.471,-1.95c-1.788,-0.732 -2.235,-1.789 -2.235,-4.024l-0,-23.327l4.47,0l0,22.718c0,0.284 0.163,0.447 0.285,0.609l3.861,1.504l-1.951,4.47l0.041,0Zm14.264,0.285c-6.706,-0 -12.192,-5.487 -12.192,-12.192c0,-1.788 0.447,-3.698 1.179,-5.364l4.592,2.357c-0.447,0.894 -0.61,1.788 -0.61,2.804c0,3.861 3.13,6.99 6.99,6.99c1.789,-0 3.577,-0.732 4.918,-1.951l3.413,3.861c-2.235,2.235 -5.201,3.414 -8.331,3.414l0.041,0.081Zm6.38,-9.672c0.285,-0.894 0.61,-1.789 0.61,-2.683c0,-3.86 -3.129,-6.99 -6.99,-6.99c-1.788,0 -3.414,0.732 -4.755,1.789l-3.414,-3.861c2.236,-1.951 5.202,-3.129 8.169,-3.129c6.706,-0 12.192,5.364 12.192,12.029c-0,1.788 -0.447,3.698 -1.179,5.364l-4.592,-2.519l-0.041,-0Z" style="fill-rule:nonzero;"/></g><path d="M337.584,94.715c-0,7.122 -5.827,12.948 -12.948,12.948l-129.482,0c-7.121,0 -12.948,-5.826 -12.948,-12.948l0,-77.689c0,-7.121 5.827,-12.948 12.948,-12.948l129.482,0c7.121,0 12.948,5.827 12.948,12.948l-0,77.689Z" style="fill:#fff;"/><path d="M324.636,4.078l-129.482,0c-7.121,0 -12.948,5.827 -12.948,12.948l0,77.689c0,7.122 5.827,12.948 12.948,12.948l129.482,0c7.121,0 12.948,-5.826 12.948,-12.948l-0,-77.689c-0,-7.121 -5.827,-12.948 -12.948,-12.948Zm-0,2.59c5.713,-0 10.358,4.646 10.358,10.358l0,77.689c0,5.713 -4.645,10.359 -10.358,10.359l-129.482,-0c-5.712,-0 -10.358,-4.646 -10.358,-10.359l-0,-77.689c-0,-5.712 4.646,-10.358 10.358,-10.358l129.482,-0Z" style="fill:#b3b3b3;fill-rule:nonzero;"/><path d="M281.699,67.939c-0.471,1.124 -0.939,2.249 -1.413,3.391c0.038,0.008 0.07,0.016 0.096,0.023c0.048,0.013 0.082,0.022 0.115,0.02c0.4,0 0.799,0.001 1.199,0.002c2.199,0.003 4.398,0.006 6.597,-0.014c0.165,0 0.413,-0.205 0.477,-0.372c0.471,-1.229 0.922,-2.463 1.341,-3.709c0.133,-0.396 0.327,-0.526 0.743,-0.523c3.017,0.017 6.038,0.023 9.056,-0.003c0.497,-0.003 0.694,0.133 0.783,0.63c0.171,0.946 0.372,1.883 0.573,2.827c0.081,0.38 0.163,0.762 0.242,1.144l7.351,0c-0.011,-0.069 -0.02,-0.136 -0.03,-0.201c-0.021,-0.145 -0.04,-0.281 -0.068,-0.414c-0.247,-1.177 -0.493,-2.353 -0.739,-3.53c-1.827,-8.727 -3.653,-17.454 -5.465,-26.185c-0.089,-0.428 -0.262,-0.509 -0.65,-0.506c-2.032,0.015 -4.061,0.015 -6.093,0.006c-1.775,-0.006 -2.983,0.821 -3.662,2.445c-2.043,4.883 -4.087,9.765 -6.131,14.647c-1.441,3.441 -2.881,6.881 -4.322,10.322Zm16.217,-13.762c0.43,2.063 0.863,4.134 1.3,6.226c-2.235,-0 -4.368,-0 -6.605,-0.003c1.387,-3.821 2.754,-7.593 4.122,-11.366c0.037,0.006 0.075,0.009 0.113,0.012c0.357,1.708 0.713,3.416 1.07,5.131Z" style="fill:#152884;"/><path d="M282.13,41.336c-0.462,2.163 -0.922,4.299 -1.382,6.452c-0.875,-0.292 -1.708,-0.61 -2.563,-0.847c-1.888,-0.523 -3.813,-0.748 -5.75,-0.373c-0.696,0.136 -1.413,0.431 -1.994,0.836c-1.287,0.893 -1.327,2.367 -0.075,3.312c0.957,0.723 2.037,1.278 3.067,1.902c1.28,0.775 2.633,1.448 3.835,2.33c3.059,2.243 4.076,5.359 3.038,9.01c-0.977,3.437 -3.39,5.498 -6.607,6.738c-2.949,1.136 -6.021,1.298 -9.129,1.046c-1.954,-0.159 -3.876,-0.5 -5.735,-1.147c-0.306,-0.107 -0.607,-0.232 -0.951,-0.365c0.483,-2.266 0.96,-4.488 1.422,-6.665c1.321,0.465 2.588,0.997 3.9,1.355c1.957,0.532 3.972,0.726 5.969,0.278c0.777,-0.174 1.572,-0.529 2.214,-0.997c1.2,-0.879 1.289,-2.498 0.168,-3.475c-0.844,-0.734 -1.85,-1.289 -2.81,-1.882c-1.442,-0.89 -2.995,-1.627 -4.348,-2.636c-4.514,-3.367 -3.708,-8.454 -1.364,-11.501c1.741,-2.261 4.128,-3.512 6.837,-4.183c3.994,-0.988 7.937,-0.705 11.816,0.633c0.142,0.052 0.272,0.11 0.442,0.179Z" style="fill:#152884;"/><path d="M258.974,40.575c-0.211,1.012 -0.413,2.006 -0.627,2.998c-1.928,9.015 -3.865,18.031 -5.773,27.049c-0.124,0.587 -0.323,0.787 -0.942,0.772c-2.177,-0.043 -4.353,-0.017 -6.53,-0.017l-0.676,-0c0.205,-0.966 0.396,-1.87 0.59,-2.772c1.971,-9.212 3.945,-18.425 5.911,-27.64c0.061,-0.286 0.124,-0.451 0.471,-0.451c2.434,0.015 4.865,0.009 7.299,0.012c0.069,0.006 0.138,0.026 0.277,0.049Z" style="fill:#152884;"/><path d="M210.265,40.508l0.593,0c4.226,0 8.452,-0.003 12.678,0c2.231,0 3.598,1.139 4.012,3.324c1.092,5.779 2.185,11.557 3.278,17.335c0.006,0.034 0.023,0.069 0.078,0.22c0.118,-0.261 0.208,-0.437 0.28,-0.622c2.602,-6.57 5.206,-13.14 7.787,-19.716c0.171,-0.437 0.388,-0.558 0.833,-0.555c2.378,0.02 4.757,0.008 7.133,0.008l0.622,0c-0.118,0.31 -0.208,0.561 -0.312,0.807c-4.128,9.854 -8.259,19.705 -12.38,29.561c-0.145,0.347 -0.307,0.501 -0.712,0.495c-2.488,-0.021 -4.977,-0.021 -7.463,-0c-0.39,0.002 -0.523,-0.122 -0.619,-0.492c-2.092,-8.134 -4.208,-16.262 -6.295,-24.399c-0.315,-1.222 -0.983,-2.069 -2.125,-2.613c-2.289,-1.093 -4.705,-1.786 -7.16,-2.376c-0.121,-0.029 -0.239,-0.066 -0.398,-0.11c0.029,-0.156 0.052,-0.295 0.078,-0.433c0.029,-0.119 0.055,-0.243 0.092,-0.434Z" style="fill:#152884;"/><path d="M877.329,94.715c0,7.122 -5.826,12.948 -12.948,12.948l-129.481,0c-7.122,0 -12.948,-5.826 -12.948,-12.948l-0,-77.689c-0,-7.121 5.826,-12.948 12.948,-12.948l129.481,0c7.122,0 12.948,5.827 12.948,12.948l0,77.689Z" style="fill:#0071cb;"/><path d="M864.381,4.078l-129.481,0c-7.122,0 -12.948,5.827 -12.948,12.948l-0,77.689c-0,7.122 5.826,12.948 12.948,12.948l129.481,0c7.122,0 12.948,-5.826 12.948,-12.948l0,-77.689c0,-7.121 -5.826,-12.948 -12.948,-12.948Zm0,2.59c5.713,-0 10.359,4.646 10.359,10.358l-0,77.689c-0,5.713 -4.646,10.359 -10.359,10.359l-129.481,-0c-5.713,-0 -10.359,-4.646 -10.359,-10.359l0,-77.689c0,-5.712 4.646,-10.358 10.359,-10.358l129.481,-0Z" style="fill:#b3b3b3;fill-rule:nonzero;"/><path d="M751.941,40.465l-13.906,30.772l16.647,-0l2.064,-4.906l4.717,-0l2.064,4.906l18.323,-0l-0,-3.745l1.632,3.745l9.479,-0l1.632,-3.824l0,3.824l38.108,-0l4.633,-4.779l4.339,4.779l19.573,0.039l-13.95,-15.339l13.95,-15.472l-19.269,-0l-4.511,4.691l-4.202,-4.691l-41.456,-0l-3.56,7.942l-3.643,-7.942l-16.612,-0l0,3.617l-1.848,-3.617l-14.204,-0Zm3.221,4.37l8.114,-0l9.223,20.866l0,-20.866l8.889,-0l7.124,14.961l6.566,-14.961l8.844,-0l0,22.08l-5.381,0l-0.044,-17.302l-7.846,17.302l-4.814,0l-7.89,-17.302l-0,17.302l-11.072,0l-2.098,-4.95l-11.34,0l-2.095,4.946l-5.932,0l9.752,-22.076Zm53.684,-0l21.883,-0l6.693,7.229l6.909,-7.229l6.693,-0l-10.17,11.097l10.17,10.97l-6.997,0l-6.693,-7.313l-6.944,7.313l-21.544,0l0,-22.067Zm-49.737,3.736l-3.736,8.818l7.468,0l-3.732,-8.818Zm55.141,0.832l-0,4.034l11.938,0l0,4.493l-11.938,0l-0,4.401l13.39,-0l6.222,-6.482l-5.958,-6.446l-13.654,-0Z" style="fill:#fff;fill-rule:nonzero;"/></g></svg>